<mxfile host="app.diagrams.net" modified="2024-05-23T12:16:51.031Z" agent="Mozilla/5.0 (Windows NT 10.0; Win64; x64) AppleWebKit/537.36 (KHTML, like Gecko) Chrome/123.0.0.0 Safari/537.36 OPR/109.0.0.0" etag="KwfjZGSoNPfN44UJpasz" version="24.4.6" type="device">
  <diagram name="Page-1" id="2YBvvXClWsGukQMizWep">
    <mxGraphModel dx="996" dy="2759" grid="1" gridSize="10" guides="1" tooltips="1" connect="1" arrows="1" fold="1" page="1" pageScale="1" pageWidth="850" pageHeight="1100" math="0" shadow="0">
      <root>
        <mxCell id="0" />
        <mxCell id="1" parent="0" />
        <mxCell id="l10hLeZLVECdgL6NMlWh-6" value="" style="edgeStyle=orthogonalEdgeStyle;rounded=0;orthogonalLoop=1;jettySize=auto;html=1;dashed=1;strokeColor=default;endArrow=none;endFill=0;exitX=0.5;exitY=0;exitDx=0;exitDy=0;exitPerimeter=0;" parent="1" source="l10hLeZLVECdgL6NMlWh-3" target="l10hLeZLVECdgL6NMlWh-5" edge="1">
          <mxGeometry relative="1" as="geometry">
            <mxPoint x="65" y="-170" as="sourcePoint" />
            <mxPoint x="65.03703703703695" y="-2150" as="targetPoint" />
            <Array as="points" />
          </mxGeometry>
        </mxCell>
        <mxCell id="l10hLeZLVECdgL6NMlWh-3" value="User" style="shape=umlActor;verticalLabelPosition=bottom;verticalAlign=top;html=1;outlineConnect=0;fontFamily=Comic Sans MS;" parent="1" vertex="1">
          <mxGeometry x="49.99999999999999" y="1440" width="30" height="60" as="geometry" />
        </mxCell>
        <mxCell id="l10hLeZLVECdgL6NMlWh-5" value="User" style="shape=umlActor;verticalLabelPosition=bottom;verticalAlign=top;html=1;outlineConnect=0;fontFamily=Comic Sans MS;" parent="1" vertex="1">
          <mxGeometry x="50" y="-2150" width="30" height="60" as="geometry" />
        </mxCell>
        <mxCell id="l10hLeZLVECdgL6NMlWh-10" value="MainWindow" style="rounded=0;whiteSpace=wrap;html=1;" parent="1" vertex="1">
          <mxGeometry x="150" y="-2150" width="120" height="60" as="geometry" />
        </mxCell>
        <mxCell id="l10hLeZLVECdgL6NMlWh-12" style="edgeStyle=orthogonalEdgeStyle;rounded=0;orthogonalLoop=1;jettySize=auto;html=1;exitX=0.5;exitY=0;exitDx=0;exitDy=0;entryX=0.5;entryY=1;entryDx=0;entryDy=0;endArrow=none;endFill=0;dashed=1;shape=link;" parent="1" source="l10hLeZLVECdgL6NMlWh-11" target="l10hLeZLVECdgL6NMlWh-10" edge="1">
          <mxGeometry relative="1" as="geometry">
            <mxPoint x="210.0000000000001" y="-160" as="sourcePoint" />
          </mxGeometry>
        </mxCell>
        <mxCell id="l10hLeZLVECdgL6NMlWh-11" value="MainWindow" style="rounded=0;whiteSpace=wrap;html=1;" parent="1" vertex="1">
          <mxGeometry x="150" y="1440" width="120" height="60" as="geometry" />
        </mxCell>
        <mxCell id="l10hLeZLVECdgL6NMlWh-13" value="" style="endArrow=classicThin;html=1;strokeWidth=1;rounded=0;endFill=1;" parent="1" edge="1">
          <mxGeometry width="50" height="50" relative="1" as="geometry">
            <mxPoint x="70" y="-2060" as="sourcePoint" />
            <mxPoint x="200" y="-2060" as="targetPoint" />
          </mxGeometry>
        </mxCell>
        <mxCell id="l10hLeZLVECdgL6NMlWh-15" value="&lt;span style=&quot;font-size: 8px;&quot;&gt;user opens application&lt;/span&gt;" style="text;html=1;align=center;verticalAlign=middle;whiteSpace=wrap;rounded=0;" parent="1" vertex="1">
          <mxGeometry x="100" y="-2090" width="60" height="30" as="geometry" />
        </mxCell>
        <mxCell id="l10hLeZLVECdgL6NMlWh-18" style="edgeStyle=orthogonalEdgeStyle;rounded=0;orthogonalLoop=1;jettySize=auto;html=1;entryX=0.5;entryY=0;entryDx=0;entryDy=0;shape=link;dashed=1;" parent="1" source="l10hLeZLVECdgL6NMlWh-16" target="l10hLeZLVECdgL6NMlWh-17" edge="1">
          <mxGeometry relative="1" as="geometry">
            <mxPoint x="402.5" y="-660" as="targetPoint" />
          </mxGeometry>
        </mxCell>
        <mxCell id="l10hLeZLVECdgL6NMlWh-16" value="&lt;font style=&quot;font-size: 12px;&quot;&gt;TwoPlayerGames&lt;/font&gt;&lt;div&gt;&lt;font style=&quot;font-size: 12px;&quot;&gt;Game Menu&lt;/font&gt;&lt;/div&gt;" style="rounded=0;whiteSpace=wrap;html=1;" parent="1" vertex="1">
          <mxGeometry x="335" y="-2150" width="135" height="60" as="geometry" />
        </mxCell>
        <mxCell id="l10hLeZLVECdgL6NMlWh-17" value="&lt;font style=&quot;font-size: 12px;&quot;&gt;TwoPlayerGames&lt;/font&gt;&lt;div&gt;&lt;font style=&quot;font-size: 12px;&quot;&gt;Game Menu&lt;/font&gt;&lt;/div&gt;" style="rounded=0;whiteSpace=wrap;html=1;" parent="1" vertex="1">
          <mxGeometry x="334.38" y="-390" width="135" height="60" as="geometry" />
        </mxCell>
        <mxCell id="l10hLeZLVECdgL6NMlWh-19" value="" style="endArrow=classicThin;html=1;strokeWidth=1;rounded=0;endFill=1;" parent="1" edge="1">
          <mxGeometry width="50" height="50" relative="1" as="geometry">
            <mxPoint x="220" y="-2050" as="sourcePoint" />
            <mxPoint x="390" y="-2050" as="targetPoint" />
          </mxGeometry>
        </mxCell>
        <mxCell id="l10hLeZLVECdgL6NMlWh-20" value="&lt;span style=&quot;font-size: 8px;&quot;&gt;chooses the first package of games&lt;/span&gt;" style="text;html=1;align=center;verticalAlign=middle;whiteSpace=wrap;rounded=0;" parent="1" vertex="1">
          <mxGeometry x="260" y="-2080" width="80" height="30" as="geometry" />
        </mxCell>
        <mxCell id="8p1hu90wys3ZK07bo3Df-3" style="edgeStyle=orthogonalEdgeStyle;rounded=0;orthogonalLoop=1;jettySize=auto;html=1;entryX=0.5;entryY=0;entryDx=0;entryDy=0;dashed=1;shape=link;" parent="1" source="8p1hu90wys3ZK07bo3Df-1" target="8p1hu90wys3ZK07bo3Df-2" edge="1">
          <mxGeometry relative="1" as="geometry" />
        </mxCell>
        <mxCell id="8p1hu90wys3ZK07bo3Df-1" value="SkillIssueBro&lt;br&gt;&lt;div&gt;Main Window&lt;/div&gt;" style="rounded=0;whiteSpace=wrap;html=1;" parent="1" vertex="1">
          <mxGeometry x="334.38" y="-310" width="130" height="60" as="geometry" />
        </mxCell>
        <mxCell id="8p1hu90wys3ZK07bo3Df-2" value="SkillIssueBro&lt;br&gt;&lt;div&gt;Main Window&lt;/div&gt;" style="rounded=0;whiteSpace=wrap;html=1;" parent="1" vertex="1">
          <mxGeometry x="335" y="1440" width="130" height="60" as="geometry" />
        </mxCell>
        <mxCell id="8p1hu90wys3ZK07bo3Df-4" value="" style="endArrow=classicThin;html=1;strokeWidth=1;rounded=0;endFill=1;" parent="1" edge="1">
          <mxGeometry width="50" height="50" relative="1" as="geometry">
            <mxPoint x="219.38" y="-210" as="sourcePoint" />
            <mxPoint x="389.38" y="-210" as="targetPoint" />
          </mxGeometry>
        </mxCell>
        <mxCell id="8p1hu90wys3ZK07bo3Df-5" value="&lt;span style=&quot;font-size: 8px;&quot;&gt;chooses the second package of games&lt;/span&gt;" style="text;html=1;align=center;verticalAlign=middle;whiteSpace=wrap;rounded=0;" parent="1" vertex="1">
          <mxGeometry x="229.38" y="-240" width="140" height="30" as="geometry" />
        </mxCell>
        <mxCell id="d5MzQgI0IvsRHTP4QtDK-3" value="Profile" style="rounded=0;whiteSpace=wrap;html=1;" parent="1" vertex="1">
          <mxGeometry x="530" y="-2050" width="120" height="60" as="geometry" />
        </mxCell>
        <mxCell id="8p1hu90wys3ZK07bo3Df-8" value="" style="edgeStyle=orthogonalEdgeStyle;rounded=0;orthogonalLoop=1;jettySize=auto;html=1;dashed=1;shape=link;" parent="1" source="8p1hu90wys3ZK07bo3Df-6" target="8p1hu90wys3ZK07bo3Df-7" edge="1">
          <mxGeometry relative="1" as="geometry" />
        </mxCell>
        <mxCell id="d5MzQgI0IvsRHTP4QtDK-7" value="" style="endArrow=classicThin;html=1;strokeWidth=1;rounded=0;endFill=1;entryX=1;entryY=1;entryDx=0;entryDy=0;" parent="1" edge="1">
          <mxGeometry width="50" height="50" relative="1" as="geometry">
            <mxPoint x="410" y="-2040" as="sourcePoint" />
            <mxPoint x="520" y="-2040" as="targetPoint" />
          </mxGeometry>
        </mxCell>
        <mxCell id="8p1hu90wys3ZK07bo3Df-6" value="SkillIssueBro&lt;br&gt;Achievements&lt;br&gt;Page" style="rounded=0;whiteSpace=wrap;html=1;" parent="1" vertex="1">
          <mxGeometry x="529.3800000000001" y="-290" width="120" height="60" as="geometry" />
        </mxCell>
        <mxCell id="d5MzQgI0IvsRHTP4QtDK-9" value="&lt;font style=&quot;font-size: 8px;&quot;&gt;enters profile&lt;/font&gt;" style="text;html=1;align=center;verticalAlign=middle;whiteSpace=wrap;rounded=0;" parent="1" vertex="1">
          <mxGeometry x="425" y="-2070" width="60" height="30" as="geometry" />
        </mxCell>
        <mxCell id="8p1hu90wys3ZK07bo3Df-7" value="SkillIssueBro&lt;br&gt;Achievements&lt;br&gt;Page" style="rounded=0;whiteSpace=wrap;html=1;" parent="1" vertex="1">
          <mxGeometry x="529.3800000000001" y="-150" width="120" height="60" as="geometry" />
        </mxCell>
        <mxCell id="d5MzQgI0IvsRHTP4QtDK-10" value="" style="endArrow=classic;html=1;rounded=0;strokeWidth=1;" parent="1" edge="1">
          <mxGeometry width="50" height="50" relative="1" as="geometry">
            <mxPoint x="530" y="-2005" as="sourcePoint" />
            <mxPoint x="410" y="-2005" as="targetPoint" />
          </mxGeometry>
        </mxCell>
        <mxCell id="8p1hu90wys3ZK07bo3Df-10" value="" style="endArrow=classicThin;html=1;strokeWidth=1;rounded=0;endFill=1;" parent="1" edge="1">
          <mxGeometry width="50" height="50" relative="1" as="geometry">
            <mxPoint x="409.38" y="-200" as="sourcePoint" />
            <mxPoint x="579.3800000000001" y="-200" as="targetPoint" />
          </mxGeometry>
        </mxCell>
        <mxCell id="d5MzQgI0IvsRHTP4QtDK-11" value="&lt;font style=&quot;font-size: 8px;&quot;&gt;exception thrown&lt;/font&gt;" style="text;html=1;align=center;verticalAlign=middle;whiteSpace=wrap;rounded=0;" parent="1" vertex="1">
          <mxGeometry x="425" y="-2030" width="75" height="25" as="geometry" />
        </mxCell>
        <mxCell id="8p1hu90wys3ZK07bo3Df-11" value="&lt;div style=&quot;font-size: 8px;&quot;&gt;&lt;font style=&quot;font-size: 8px;&quot;&gt;Clicks the achievements&lt;/font&gt;&lt;/div&gt;&lt;div style=&quot;font-size: 8px;&quot;&gt;&lt;font style=&quot;font-size: 8px;&quot;&gt;button&lt;font style=&quot;font-size: 8px;&quot;&gt;&lt;br&gt;&lt;/font&gt;&lt;/font&gt;&lt;/div&gt;" style="text;html=1;align=center;verticalAlign=middle;whiteSpace=wrap;rounded=0;" parent="1" vertex="1">
          <mxGeometry x="439.38" y="-230" width="100" height="30" as="geometry" />
        </mxCell>
        <mxCell id="d5MzQgI0IvsRHTP4QtDK-12" value="Chess" style="rounded=0;whiteSpace=wrap;html=1;" parent="1" vertex="1">
          <mxGeometry x="530" y="-1970" width="120" height="60" as="geometry" />
        </mxCell>
        <mxCell id="8p1hu90wys3ZK07bo3Df-12" value="" style="endArrow=none;html=1;rounded=0;startArrow=classic;startFill=1;" parent="1" edge="1">
          <mxGeometry width="50" height="50" relative="1" as="geometry">
            <mxPoint x="409.38" y="-180" as="sourcePoint" />
            <mxPoint x="579.3800000000001" y="-180" as="targetPoint" />
          </mxGeometry>
        </mxCell>
        <mxCell id="d5MzQgI0IvsRHTP4QtDK-13" value="" style="endArrow=classic;html=1;rounded=0;strokeWidth=1;" parent="1" edge="1">
          <mxGeometry width="50" height="50" relative="1" as="geometry">
            <mxPoint x="410" y="-1960" as="sourcePoint" />
            <mxPoint x="520" y="-1960" as="targetPoint" />
          </mxGeometry>
        </mxCell>
        <mxCell id="8p1hu90wys3ZK07bo3Df-13" value="&lt;div style=&quot;font-size: 8px;&quot;&gt;&lt;font style=&quot;font-size: 8px;&quot;&gt;Clicks the back&lt;/font&gt;&lt;/div&gt;&lt;div style=&quot;font-size: 8px;&quot;&gt;&lt;font style=&quot;font-size: 8px;&quot;&gt;button&lt;font style=&quot;font-size: 8px;&quot;&gt;&lt;br&gt;&lt;/font&gt;&lt;/font&gt;&lt;/div&gt;" style="text;html=1;align=center;verticalAlign=middle;whiteSpace=wrap;rounded=0;" parent="1" vertex="1">
          <mxGeometry x="439.38" y="-180" width="100" height="30" as="geometry" />
        </mxCell>
        <mxCell id="d5MzQgI0IvsRHTP4QtDK-14" value="&lt;font style=&quot;font-size: 8px;&quot;&gt;chooses Chess&lt;/font&gt;" style="text;html=1;align=center;verticalAlign=middle;whiteSpace=wrap;rounded=0;" parent="1" vertex="1">
          <mxGeometry x="432.5" y="-1990" width="60" height="30" as="geometry" />
        </mxCell>
        <mxCell id="8p1hu90wys3ZK07bo3Df-17" value="" style="edgeStyle=orthogonalEdgeStyle;rounded=0;orthogonalLoop=1;jettySize=auto;html=1;entryX=0.5;entryY=0;entryDx=0;entryDy=0;dashed=1;startArrow=none;startFill=0;endArrow=none;endFill=0;shape=link;" parent="1" source="8p1hu90wys3ZK07bo3Df-14" target="8p1hu90wys3ZK07bo3Df-15" edge="1">
          <mxGeometry relative="1" as="geometry">
            <mxPoint x="589.3799999999999" y="600" as="targetPoint" />
          </mxGeometry>
        </mxCell>
        <mxCell id="d5MzQgI0IvsRHTP4QtDK-16" style="edgeStyle=orthogonalEdgeStyle;rounded=0;orthogonalLoop=1;jettySize=auto;html=1;entryX=0.5;entryY=1;entryDx=0;entryDy=0;shape=link;dashed=1;" parent="1" source="d5MzQgI0IvsRHTP4QtDK-15" target="d5MzQgI0IvsRHTP4QtDK-12" edge="1">
          <mxGeometry relative="1" as="geometry" />
        </mxCell>
        <mxCell id="8p1hu90wys3ZK07bo3Df-14" value="&lt;div&gt;SkillIssueBro&lt;/div&gt;&lt;div&gt;Game of Life&lt;br&gt;&lt;/div&gt;" style="rounded=0;whiteSpace=wrap;html=1;" parent="1" vertex="1">
          <mxGeometry x="529.3800000000001" y="-80" width="120" height="60" as="geometry" />
        </mxCell>
        <mxCell id="d5MzQgI0IvsRHTP4QtDK-15" value="Chess" style="rounded=0;whiteSpace=wrap;html=1;" parent="1" vertex="1">
          <mxGeometry x="530" y="-1635" width="120" height="60" as="geometry" />
        </mxCell>
        <mxCell id="8p1hu90wys3ZK07bo3Df-15" value="&lt;div&gt;SkillIssueBro&lt;/div&gt;&lt;div&gt;Game of Life&lt;br&gt;&lt;/div&gt;" style="rounded=0;whiteSpace=wrap;html=1;" parent="1" vertex="1">
          <mxGeometry x="529.3800000000001" y="965.3399999999999" width="120" height="60" as="geometry" />
        </mxCell>
        <mxCell id="d5MzQgI0IvsRHTP4QtDK-17" value="" style="endArrow=classic;html=1;rounded=0;strokeWidth=1;" parent="1" edge="1">
          <mxGeometry width="50" height="50" relative="1" as="geometry">
            <mxPoint x="520" y="-1920" as="sourcePoint" />
            <mxPoint x="410" y="-1920" as="targetPoint" />
          </mxGeometry>
        </mxCell>
        <mxCell id="8p1hu90wys3ZK07bo3Df-18" value="&lt;div style=&quot;font-size: 8px;&quot;&gt;&lt;font style=&quot;font-size: 8px;&quot;&gt;Clicks the Game of Life&lt;br&gt;&lt;/font&gt;&lt;/div&gt;&lt;div style=&quot;font-size: 8px;&quot;&gt;&lt;font style=&quot;font-size: 8px;&quot;&gt;button&lt;font style=&quot;font-size: 8px;&quot;&gt;&lt;br&gt;&lt;/font&gt;&lt;/font&gt;&lt;/div&gt;" style="text;html=1;align=center;verticalAlign=middle;whiteSpace=wrap;rounded=0;" parent="1" vertex="1">
          <mxGeometry x="439.38" y="-20" width="100" height="30" as="geometry" />
        </mxCell>
        <mxCell id="d5MzQgI0IvsRHTP4QtDK-18" value="&lt;font style=&quot;font-size: 8px;&quot;&gt;asks for a game mode&lt;/font&gt;" style="text;html=1;align=center;verticalAlign=middle;whiteSpace=wrap;rounded=0;" parent="1" vertex="1">
          <mxGeometry x="421.25" y="-1950" width="87.5" height="30" as="geometry" />
        </mxCell>
        <mxCell id="8p1hu90wys3ZK07bo3Df-19" value="" style="endArrow=classicThin;html=1;strokeWidth=1;rounded=0;endFill=1;" parent="1" edge="1">
          <mxGeometry width="50" height="50" relative="1" as="geometry">
            <mxPoint x="409.38" y="10" as="sourcePoint" />
            <mxPoint x="579.3800000000001" y="10" as="targetPoint" />
          </mxGeometry>
        </mxCell>
        <mxCell id="d5MzQgI0IvsRHTP4QtDK-19" value="" style="endArrow=classic;html=1;rounded=0;strokeWidth=1;" parent="1" edge="1">
          <mxGeometry width="50" height="50" relative="1" as="geometry">
            <mxPoint x="410" y="-1880" as="sourcePoint" />
            <mxPoint x="580" y="-1880" as="targetPoint" />
            <Array as="points" />
          </mxGeometry>
        </mxCell>
        <mxCell id="8p1hu90wys3ZK07bo3Df-20" value="" style="endArrow=none;html=1;rounded=0;startArrow=classic;startFill=1;" parent="1" edge="1">
          <mxGeometry width="50" height="50" relative="1" as="geometry">
            <mxPoint x="409.38" y="945.3399999999999" as="sourcePoint" />
            <mxPoint x="579.3800000000001" y="945.3399999999999" as="targetPoint" />
          </mxGeometry>
        </mxCell>
        <mxCell id="d5MzQgI0IvsRHTP4QtDK-21" value="&lt;font style=&quot;font-size: 8px;&quot;&gt;chooses game mode&lt;/font&gt;" style="text;html=1;align=center;verticalAlign=middle;whiteSpace=wrap;rounded=0;" parent="1" vertex="1">
          <mxGeometry x="445" y="-1910" width="85" height="30" as="geometry" />
        </mxCell>
        <mxCell id="8p1hu90wys3ZK07bo3Df-21" value="&lt;div style=&quot;font-size: 8px;&quot;&gt;&lt;font style=&quot;font-size: 8px;&quot;&gt;Clicks the back&lt;/font&gt;&lt;/div&gt;&lt;div style=&quot;font-size: 8px;&quot;&gt;&lt;font style=&quot;font-size: 8px;&quot;&gt;button&lt;font style=&quot;font-size: 8px;&quot;&gt;&lt;br&gt;&lt;/font&gt;&lt;/font&gt;&lt;/div&gt;" style="text;html=1;align=center;verticalAlign=middle;whiteSpace=wrap;rounded=0;" parent="1" vertex="1">
          <mxGeometry x="439.38" y="945.3399999999999" width="100" height="30" as="geometry" />
        </mxCell>
        <mxCell id="d5MzQgI0IvsRHTP4QtDK-22" value="" style="endArrow=classic;html=1;rounded=0;strokeWidth=1;" parent="1" edge="1">
          <mxGeometry width="50" height="50" relative="1" as="geometry">
            <mxPoint x="580" y="-1840" as="sourcePoint" />
            <mxPoint x="410" y="-1840" as="targetPoint" />
          </mxGeometry>
        </mxCell>
        <mxCell id="8p1hu90wys3ZK07bo3Df-22" value="" style="endArrow=none;html=1;strokeWidth=1;rounded=0;endFill=0;startArrow=classicThin;startFill=1;" parent="1" edge="1">
          <mxGeometry width="50" height="50" relative="1" as="geometry">
            <mxPoint x="70" y="1420" as="sourcePoint" />
            <mxPoint x="200" y="1420" as="targetPoint" />
          </mxGeometry>
        </mxCell>
        <mxCell id="d5MzQgI0IvsRHTP4QtDK-23" value="&lt;font style=&quot;font-size: 8px;&quot;&gt;asks to choose opponent (AI or human)&lt;/font&gt;" style="text;html=1;align=center;verticalAlign=middle;whiteSpace=wrap;rounded=0;" parent="1" vertex="1">
          <mxGeometry x="440" y="-1870" width="90" height="30" as="geometry" />
        </mxCell>
        <mxCell id="8p1hu90wys3ZK07bo3Df-23" value="&lt;div style=&quot;font-size: 8px;&quot;&gt;&lt;font style=&quot;font-size: 8px;&quot;&gt;user closes&lt;/font&gt;&lt;/div&gt;&lt;div style=&quot;font-size: 8px;&quot;&gt;&lt;font style=&quot;font-size: 8px;&quot;&gt;application&lt;font style=&quot;font-size: 8px;&quot;&gt;&lt;br style=&quot;font-size: 8px;&quot;&gt;&lt;/font&gt;&lt;/font&gt;&lt;/div&gt;" style="text;html=1;align=center;verticalAlign=middle;whiteSpace=wrap;rounded=0;fontSize=8;" parent="1" vertex="1">
          <mxGeometry x="100" y="1390" width="60" height="30" as="geometry" />
        </mxCell>
        <mxCell id="d5MzQgI0IvsRHTP4QtDK-24" value="" style="endArrow=classic;html=1;rounded=0;strokeWidth=1;" parent="1" edge="1">
          <mxGeometry width="50" height="50" relative="1" as="geometry">
            <mxPoint x="410" y="-1810" as="sourcePoint" />
            <mxPoint x="580" y="-1810" as="targetPoint" />
          </mxGeometry>
        </mxCell>
        <mxCell id="d5MzQgI0IvsRHTP4QtDK-25" value="&lt;font style=&quot;font-size: 8px;&quot;&gt;chooses opponent&lt;/font&gt;" style="text;html=1;align=center;verticalAlign=middle;whiteSpace=wrap;rounded=0;" parent="1" vertex="1">
          <mxGeometry x="445" y="-1830" width="70" height="20" as="geometry" />
        </mxCell>
        <mxCell id="d5MzQgI0IvsRHTP4QtDK-26" value="Chess - human opponent" style="rounded=0;whiteSpace=wrap;html=1;" parent="1" vertex="1">
          <mxGeometry x="780" y="-1820" width="120" height="60" as="geometry" />
        </mxCell>
        <mxCell id="i80eWm8D1azyvvJ_BBGj-1" value="SkillIssueBro&lt;br&gt;Game" style="rounded=0;whiteSpace=wrap;html=1;" parent="1" vertex="1">
          <mxGeometry x="530.0000000000001" y="1040" width="120" height="60" as="geometry" />
        </mxCell>
        <mxCell id="d5MzQgI0IvsRHTP4QtDK-27" value="" style="endArrow=classic;html=1;rounded=0;strokeWidth=1;" parent="1" edge="1">
          <mxGeometry width="50" height="50" relative="1" as="geometry">
            <mxPoint x="600" y="-1810" as="sourcePoint" />
            <mxPoint x="770" y="-1811.05" as="targetPoint" />
          </mxGeometry>
        </mxCell>
        <mxCell id="i80eWm8D1azyvvJ_BBGj-2" value="&lt;div style=&quot;font-size: 8px;&quot;&gt;&lt;font style=&quot;font-size: 8px;&quot;&gt;Clicks the Skill Issue Bro&lt;/font&gt;&lt;/div&gt;&lt;div style=&quot;font-size: 8px;&quot;&gt;&lt;font style=&quot;font-size: 8px;&quot;&gt;button&lt;font style=&quot;font-size: 8px;&quot;&gt;&lt;br&gt;&lt;/font&gt;&lt;/font&gt;&lt;/div&gt;" style="text;html=1;align=center;verticalAlign=middle;whiteSpace=wrap;rounded=0;" parent="1" vertex="1">
          <mxGeometry x="440" y="1100" width="100" height="30" as="geometry" />
        </mxCell>
        <mxCell id="d5MzQgI0IvsRHTP4QtDK-28" value="&lt;font style=&quot;font-size: 8px;&quot;&gt;chooses human opponent&lt;/font&gt;" style="text;html=1;align=center;verticalAlign=middle;whiteSpace=wrap;rounded=0;" parent="1" vertex="1">
          <mxGeometry x="630" y="-1840" width="100" height="30" as="geometry" />
        </mxCell>
        <mxCell id="i80eWm8D1azyvvJ_BBGj-3" value="" style="endArrow=classicThin;html=1;strokeWidth=1;rounded=0;endFill=1;" parent="1" edge="1">
          <mxGeometry width="50" height="50" relative="1" as="geometry">
            <mxPoint x="410" y="1130" as="sourcePoint" />
            <mxPoint x="580.0000000000001" y="1130" as="targetPoint" />
          </mxGeometry>
        </mxCell>
        <mxCell id="d5MzQgI0IvsRHTP4QtDK-29" value="" style="endArrow=classic;html=1;rounded=0;strokeWidth=1;" parent="1" edge="1">
          <mxGeometry width="50" height="50" relative="1" as="geometry">
            <mxPoint x="770" y="-1770" as="sourcePoint" />
            <mxPoint x="600" y="-1770" as="targetPoint" />
          </mxGeometry>
        </mxCell>
        <mxCell id="i80eWm8D1azyvvJ_BBGj-4" value="" style="endArrow=none;html=1;rounded=0;startArrow=classic;startFill=1;" parent="1" edge="1">
          <mxGeometry width="50" height="50" relative="1" as="geometry">
            <mxPoint x="410" y="1404.6599999999999" as="sourcePoint" />
            <mxPoint x="580.0000000000001" y="1404.6599999999999" as="targetPoint" />
          </mxGeometry>
        </mxCell>
        <mxCell id="d5MzQgI0IvsRHTP4QtDK-30" value="&lt;font style=&quot;font-size: 8px;&quot;&gt;exception thrown&lt;/font&gt;" style="text;html=1;align=center;verticalAlign=middle;whiteSpace=wrap;rounded=0;" parent="1" vertex="1">
          <mxGeometry x="640" y="-1805" width="80" height="30" as="geometry" />
        </mxCell>
        <mxCell id="i80eWm8D1azyvvJ_BBGj-5" value="&lt;div style=&quot;font-size: 8px;&quot;&gt;&lt;font style=&quot;font-size: 8px;&quot;&gt;Clicks the back&lt;/font&gt;&lt;/div&gt;&lt;div style=&quot;font-size: 8px;&quot;&gt;&lt;font style=&quot;font-size: 8px;&quot;&gt;button&lt;font style=&quot;font-size: 8px;&quot;&gt;&lt;br&gt;&lt;/font&gt;&lt;/font&gt;&lt;/div&gt;" style="text;html=1;align=center;verticalAlign=middle;whiteSpace=wrap;rounded=0;" parent="1" vertex="1">
          <mxGeometry x="440" y="1410" width="100" height="30" as="geometry" />
        </mxCell>
        <mxCell id="d5MzQgI0IvsRHTP4QtDK-31" value="Chess - AI opponent" style="rounded=0;whiteSpace=wrap;html=1;" parent="1" vertex="1">
          <mxGeometry x="780" y="-1730" width="120" height="60" as="geometry" />
        </mxCell>
        <mxCell id="i80eWm8D1azyvvJ_BBGj-6" value="SkillIssueBro&lt;br&gt;Game" style="rounded=0;whiteSpace=wrap;html=1;" parent="1" vertex="1">
          <mxGeometry x="530.0000000000001" y="1430" width="120" height="60" as="geometry" />
        </mxCell>
        <mxCell id="d5MzQgI0IvsRHTP4QtDK-33" value="" style="endArrow=classic;html=1;rounded=0;strokeWidth=1;" parent="1" edge="1">
          <mxGeometry width="50" height="50" relative="1" as="geometry">
            <mxPoint x="600" y="-1720" as="sourcePoint" />
            <mxPoint x="770" y="-1720" as="targetPoint" />
          </mxGeometry>
        </mxCell>
        <mxCell id="i80eWm8D1azyvvJ_BBGj-7" value="" style="edgeStyle=orthogonalEdgeStyle;rounded=0;orthogonalLoop=1;jettySize=auto;html=1;entryX=0.5;entryY=0;entryDx=0;entryDy=0;dashed=1;startArrow=none;startFill=0;endArrow=none;endFill=0;shape=link;exitX=0.5;exitY=1;exitDx=0;exitDy=0;" parent="1" source="i80eWm8D1azyvvJ_BBGj-1" target="i80eWm8D1azyvvJ_BBGj-6" edge="1">
          <mxGeometry relative="1" as="geometry">
            <mxPoint x="589.7600000000001" y="280" as="targetPoint" />
            <mxPoint x="590.0000000000001" y="160" as="sourcePoint" />
          </mxGeometry>
        </mxCell>
        <mxCell id="d5MzQgI0IvsRHTP4QtDK-34" value="&lt;font style=&quot;font-size: 8px;&quot;&gt;chooses AI opponent&lt;/font&gt;" style="text;html=1;align=center;verticalAlign=middle;whiteSpace=wrap;rounded=0;" parent="1" vertex="1">
          <mxGeometry x="637.5" y="-1750" width="85" height="30" as="geometry" />
        </mxCell>
        <mxCell id="i80eWm8D1azyvvJ_BBGj-8" value="&lt;div&gt;close the window&lt;/div&gt;" style="text;html=1;align=center;verticalAlign=middle;whiteSpace=wrap;rounded=0;fontSize=8;" parent="1" vertex="1">
          <mxGeometry x="260" y="1380" width="80" height="30" as="geometry" />
        </mxCell>
        <mxCell id="d5MzQgI0IvsRHTP4QtDK-35" value="" style="endArrow=classic;html=1;rounded=0;strokeWidth=1;" parent="1" edge="1">
          <mxGeometry width="50" height="50" relative="1" as="geometry">
            <mxPoint x="770" y="-1680" as="sourcePoint" />
            <mxPoint x="600" y="-1680" as="targetPoint" />
          </mxGeometry>
        </mxCell>
        <mxCell id="i80eWm8D1azyvvJ_BBGj-9" value="" style="endArrow=none;html=1;strokeWidth=1;rounded=0;endFill=0;startArrow=classicThin;startFill=1;" parent="1" edge="1">
          <mxGeometry width="50" height="50" relative="1" as="geometry">
            <mxPoint x="220" y="1410" as="sourcePoint" />
            <mxPoint x="390" y="1410.69" as="targetPoint" />
          </mxGeometry>
        </mxCell>
        <mxCell id="d5MzQgI0IvsRHTP4QtDK-36" value="&lt;font style=&quot;font-size: 8px;&quot;&gt;asks for difficulty&lt;/font&gt;" style="text;html=1;align=center;verticalAlign=middle;whiteSpace=wrap;rounded=0;" parent="1" vertex="1">
          <mxGeometry x="640" y="-1715" width="80" height="30" as="geometry" />
        </mxCell>
        <mxCell id="i80eWm8D1azyvvJ_BBGj-10" value="SkillIssueBro&lt;br&gt;&lt;div&gt;Host Game&lt;/div&gt;" style="rounded=0;whiteSpace=wrap;html=1;" parent="1" vertex="1">
          <mxGeometry x="670.0000000000001" y="1050" width="120" height="60" as="geometry" />
        </mxCell>
        <mxCell id="d5MzQgI0IvsRHTP4QtDK-38" style="edgeStyle=orthogonalEdgeStyle;rounded=0;orthogonalLoop=1;jettySize=auto;html=1;entryX=0.5;entryY=1;entryDx=0;entryDy=0;shape=link;dashed=1;" parent="1" source="d5MzQgI0IvsRHTP4QtDK-37" target="d5MzQgI0IvsRHTP4QtDK-31" edge="1">
          <mxGeometry relative="1" as="geometry" />
        </mxCell>
        <mxCell id="i80eWm8D1azyvvJ_BBGj-11" value="SkillIssueBro&lt;br&gt;Host Game" style="rounded=0;whiteSpace=wrap;html=1;" parent="1" vertex="1">
          <mxGeometry x="670.0000000000001" y="1200" width="120" height="60" as="geometry" />
        </mxCell>
        <mxCell id="d5MzQgI0IvsRHTP4QtDK-37" value="Chess - AI opponent" style="rounded=0;whiteSpace=wrap;html=1;" parent="1" vertex="1">
          <mxGeometry x="780" y="-1630" width="120" height="60" as="geometry" />
        </mxCell>
        <mxCell id="i80eWm8D1azyvvJ_BBGj-12" value="" style="edgeStyle=orthogonalEdgeStyle;rounded=0;orthogonalLoop=1;jettySize=auto;html=1;entryX=0.5;entryY=0;entryDx=0;entryDy=0;dashed=1;startArrow=none;startFill=0;endArrow=none;endFill=0;shape=link;exitX=0.5;exitY=1;exitDx=0;exitDy=0;" parent="1" source="i80eWm8D1azyvvJ_BBGj-10" target="i80eWm8D1azyvvJ_BBGj-11" edge="1">
          <mxGeometry relative="1" as="geometry">
            <mxPoint x="729.7600000000001" y="280" as="targetPoint" />
            <mxPoint x="730.0000000000001" y="160" as="sourcePoint" />
          </mxGeometry>
        </mxCell>
        <mxCell id="d5MzQgI0IvsRHTP4QtDK-39" value="" style="endArrow=classic;html=1;rounded=0;strokeWidth=1;" parent="1" edge="1">
          <mxGeometry width="50" height="50" relative="1" as="geometry">
            <mxPoint x="660" y="-1630" as="sourcePoint" />
            <mxPoint x="770" y="-1630" as="targetPoint" />
          </mxGeometry>
        </mxCell>
        <mxCell id="i80eWm8D1azyvvJ_BBGj-13" value="&lt;div&gt;SkillIssueBro&lt;/div&gt;&lt;div&gt;Join Game&lt;/div&gt;" style="rounded=0;whiteSpace=wrap;html=1;" parent="1" vertex="1">
          <mxGeometry x="670.0000000000001" y="1420" width="120" height="60" as="geometry" />
        </mxCell>
        <mxCell id="d5MzQgI0IvsRHTP4QtDK-40" value="&lt;font style=&quot;font-size: 8px;&quot;&gt;chooses difficulty&lt;/font&gt;" style="text;html=1;align=center;verticalAlign=middle;whiteSpace=wrap;rounded=0;" parent="1" vertex="1">
          <mxGeometry x="670" y="-1660" width="70" height="30" as="geometry" />
        </mxCell>
        <mxCell id="i80eWm8D1azyvvJ_BBGj-14" value="SkillIssueBro&lt;br&gt;&lt;div&gt;Join Game&lt;/div&gt;" style="rounded=0;whiteSpace=wrap;html=1;" parent="1" vertex="1">
          <mxGeometry x="670.0000000000001" y="1270" width="120" height="60" as="geometry" />
        </mxCell>
        <mxCell id="d5MzQgI0IvsRHTP4QtDK-41" value="" style="endArrow=classic;html=1;rounded=0;strokeWidth=1;" parent="1" edge="1">
          <mxGeometry width="50" height="50" relative="1" as="geometry">
            <mxPoint x="770" y="-1585" as="sourcePoint" />
            <mxPoint x="660" y="-1585" as="targetPoint" />
          </mxGeometry>
        </mxCell>
        <mxCell id="i80eWm8D1azyvvJ_BBGj-15" value="" style="edgeStyle=orthogonalEdgeStyle;rounded=0;orthogonalLoop=1;jettySize=auto;html=1;entryX=0.5;entryY=0;entryDx=0;entryDy=0;dashed=1;startArrow=none;startFill=0;endArrow=none;endFill=0;shape=link;exitX=0.5;exitY=1;exitDx=0;exitDy=0;" parent="1" source="i80eWm8D1azyvvJ_BBGj-14" target="i80eWm8D1azyvvJ_BBGj-13" edge="1">
          <mxGeometry relative="1" as="geometry">
            <mxPoint x="729.7600000000001" y="540" as="targetPoint" />
            <mxPoint x="730.0000000000001" y="420" as="sourcePoint" />
          </mxGeometry>
        </mxCell>
        <mxCell id="d5MzQgI0IvsRHTP4QtDK-42" value="&lt;font style=&quot;font-size: 8px;&quot;&gt;exception thrown&lt;/font&gt;" style="text;html=1;align=center;verticalAlign=middle;whiteSpace=wrap;rounded=0;" parent="1" vertex="1">
          <mxGeometry x="670" y="-1620" width="80" height="30" as="geometry" />
        </mxCell>
        <mxCell id="i80eWm8D1azyvvJ_BBGj-16" value="&lt;font style=&quot;font-size: 8px;&quot;&gt;Clicks the host game button&lt;br&gt;&lt;/font&gt;" style="text;html=1;align=center;verticalAlign=middle;whiteSpace=wrap;rounded=0;" parent="1" vertex="1">
          <mxGeometry x="610.0000000000001" y="1110" width="100" height="30" as="geometry" />
        </mxCell>
        <mxCell id="d5MzQgI0IvsRHTP4QtDK-43" value="Connect4" style="rounded=0;whiteSpace=wrap;html=1;" parent="1" vertex="1">
          <mxGeometry x="530" y="-1540" width="120" height="60" as="geometry" />
        </mxCell>
        <mxCell id="i80eWm8D1azyvvJ_BBGj-17" value="" style="endArrow=classicThin;html=1;strokeWidth=1;rounded=0;endFill=1;" parent="1" edge="1">
          <mxGeometry width="50" height="50" relative="1" as="geometry">
            <mxPoint x="600.0000000000001" y="1140" as="sourcePoint" />
            <mxPoint x="720.0000000000001" y="1140" as="targetPoint" />
          </mxGeometry>
        </mxCell>
        <mxCell id="d5MzQgI0IvsRHTP4QtDK-44" value="" style="endArrow=classic;html=1;rounded=0;strokeWidth=1;" parent="1" edge="1">
          <mxGeometry width="50" height="50" relative="1" as="geometry">
            <mxPoint x="410" y="-1520" as="sourcePoint" />
            <mxPoint x="520" y="-1520" as="targetPoint" />
          </mxGeometry>
        </mxCell>
        <mxCell id="i80eWm8D1azyvvJ_BBGj-18" value="&lt;div style=&quot;font-size: 8px;&quot;&gt;&lt;font style=&quot;font-size: 8px;&quot;&gt;Clicks the back button&lt;font style=&quot;font-size: 8px;&quot;&gt;&lt;br&gt;&lt;/font&gt;&lt;/font&gt;&lt;/div&gt;" style="text;html=1;align=center;verticalAlign=middle;whiteSpace=wrap;rounded=0;" parent="1" vertex="1">
          <mxGeometry x="610.0000000000001" y="1170" width="100" height="30" as="geometry" />
        </mxCell>
        <mxCell id="d5MzQgI0IvsRHTP4QtDK-45" value="&lt;font style=&quot;font-size: 8px;&quot;&gt;chooses Connect4&lt;/font&gt;" style="text;html=1;align=center;verticalAlign=middle;whiteSpace=wrap;rounded=0;" parent="1" vertex="1">
          <mxGeometry x="428.75" y="-1550" width="72.5" height="30" as="geometry" />
        </mxCell>
        <mxCell id="i80eWm8D1azyvvJ_BBGj-19" value="" style="endArrow=none;html=1;rounded=0;startArrow=classic;startFill=1;" parent="1" edge="1">
          <mxGeometry width="50" height="50" relative="1" as="geometry">
            <mxPoint x="600.0000000000001" y="1170" as="sourcePoint" />
            <mxPoint x="720.0000000000001" y="1170.3400000000001" as="targetPoint" />
          </mxGeometry>
        </mxCell>
        <mxCell id="d5MzQgI0IvsRHTP4QtDK-47" style="edgeStyle=orthogonalEdgeStyle;rounded=0;orthogonalLoop=1;jettySize=auto;html=1;entryX=0.5;entryY=1;entryDx=0;entryDy=0;shape=link;dashed=1;" parent="1" source="d5MzQgI0IvsRHTP4QtDK-46" target="d5MzQgI0IvsRHTP4QtDK-43" edge="1">
          <mxGeometry relative="1" as="geometry" />
        </mxCell>
        <mxCell id="i80eWm8D1azyvvJ_BBGj-20" value="&lt;div style=&quot;font-size: 8px;&quot;&gt;&lt;font style=&quot;font-size: 8px;&quot;&gt;Clicks the back button&lt;font style=&quot;font-size: 8px;&quot;&gt;&lt;br&gt;&lt;/font&gt;&lt;/font&gt;&lt;/div&gt;" style="text;html=1;align=center;verticalAlign=middle;whiteSpace=wrap;rounded=0;" parent="1" vertex="1">
          <mxGeometry x="610.0000000000001" y="1390" width="100" height="30" as="geometry" />
        </mxCell>
        <mxCell id="d5MzQgI0IvsRHTP4QtDK-46" value="Connect4" style="rounded=0;whiteSpace=wrap;html=1;" parent="1" vertex="1">
          <mxGeometry x="530" y="-1275" width="120" height="60" as="geometry" />
        </mxCell>
        <mxCell id="i80eWm8D1azyvvJ_BBGj-21" value="" style="endArrow=none;html=1;rounded=0;startArrow=classic;startFill=1;" parent="1" edge="1">
          <mxGeometry width="50" height="50" relative="1" as="geometry">
            <mxPoint x="600.0000000000001" y="1390" as="sourcePoint" />
            <mxPoint x="720.0000000000001" y="1390.3400000000001" as="targetPoint" />
          </mxGeometry>
        </mxCell>
        <mxCell id="d5MzQgI0IvsRHTP4QtDK-52" value="" style="endArrow=classic;html=1;rounded=0;strokeWidth=1;" parent="1" edge="1">
          <mxGeometry width="50" height="50" relative="1" as="geometry">
            <mxPoint x="520" y="-1480" as="sourcePoint" />
            <mxPoint x="410" y="-1480" as="targetPoint" />
            <Array as="points" />
          </mxGeometry>
        </mxCell>
        <mxCell id="i80eWm8D1azyvvJ_BBGj-22" value="" style="endArrow=classicThin;html=1;strokeWidth=1;rounded=0;endFill=1;" parent="1" edge="1">
          <mxGeometry width="50" height="50" relative="1" as="geometry">
            <mxPoint x="600.0000000000001" y="1360" as="sourcePoint" />
            <mxPoint x="720.0000000000001" y="1360" as="targetPoint" />
          </mxGeometry>
        </mxCell>
        <mxCell id="d5MzQgI0IvsRHTP4QtDK-53" value="&lt;font style=&quot;font-size: 8px;&quot;&gt;asks to choose opponent (AI or human)&lt;/font&gt;" style="text;html=1;align=center;verticalAlign=middle;whiteSpace=wrap;rounded=0;" parent="1" vertex="1">
          <mxGeometry x="416.25" y="-1510" width="98.75" height="30" as="geometry" />
        </mxCell>
        <mxCell id="i80eWm8D1azyvvJ_BBGj-23" value="&lt;div&gt;&lt;font style=&quot;font-size: 8px;&quot;&gt;Clicks the join game button&lt;/font&gt;&lt;/div&gt;" style="text;html=1;align=center;verticalAlign=middle;whiteSpace=wrap;rounded=0;" parent="1" vertex="1">
          <mxGeometry x="610.0000000000001" y="1330" width="100" height="30" as="geometry" />
        </mxCell>
        <mxCell id="d5MzQgI0IvsRHTP4QtDK-54" value="" style="endArrow=classic;html=1;rounded=0;strokeWidth=1;" parent="1" edge="1">
          <mxGeometry width="50" height="50" relative="1" as="geometry">
            <mxPoint x="405" y="-1450" as="sourcePoint" />
            <mxPoint x="575" y="-1450" as="targetPoint" />
          </mxGeometry>
        </mxCell>
        <mxCell id="i80eWm8D1azyvvJ_BBGj-27" value="" style="edgeStyle=orthogonalEdgeStyle;rounded=0;orthogonalLoop=1;jettySize=auto;html=1;endArrow=none;endFill=0;dashed=1;shape=link;" parent="1" source="i80eWm8D1azyvvJ_BBGj-24" target="i80eWm8D1azyvvJ_BBGj-26" edge="1">
          <mxGeometry relative="1" as="geometry" />
        </mxCell>
        <mxCell id="d5MzQgI0IvsRHTP4QtDK-55" value="&lt;font style=&quot;font-size: 8px;&quot;&gt;chooses opponent&lt;/font&gt;" style="text;html=1;align=center;verticalAlign=middle;whiteSpace=wrap;rounded=0;" parent="1" vertex="1">
          <mxGeometry x="440" y="-1470" width="70" height="20" as="geometry" />
        </mxCell>
        <mxCell id="i80eWm8D1azyvvJ_BBGj-24" value="SkillIssueBro&lt;br&gt;&lt;div&gt;In Game&lt;/div&gt;" style="rounded=0;whiteSpace=wrap;html=1;" parent="1" vertex="1">
          <mxGeometry x="810.0000000000001" y="1060" width="120" height="60" as="geometry" />
        </mxCell>
        <mxCell id="d5MzQgI0IvsRHTP4QtDK-56" value="Connect4 - human opponent" style="rounded=0;whiteSpace=wrap;html=1;" parent="1" vertex="1">
          <mxGeometry x="790" y="-1460" width="120" height="60" as="geometry" />
        </mxCell>
        <mxCell id="i80eWm8D1azyvvJ_BBGj-26" value="SkillIssueBro&lt;br&gt;&lt;div&gt;In Game&lt;/div&gt;" style="rounded=0;whiteSpace=wrap;html=1;" parent="1" vertex="1">
          <mxGeometry x="810.0000000000001" y="1410" width="120" height="60" as="geometry" />
        </mxCell>
        <mxCell id="d5MzQgI0IvsRHTP4QtDK-57" value="" style="endArrow=classic;html=1;rounded=0;strokeWidth=1;" parent="1" edge="1">
          <mxGeometry width="50" height="50" relative="1" as="geometry">
            <mxPoint x="610" y="-1450" as="sourcePoint" />
            <mxPoint x="780" y="-1451.05" as="targetPoint" />
          </mxGeometry>
        </mxCell>
        <mxCell id="i80eWm8D1azyvvJ_BBGj-28" value="" style="endArrow=classicThin;html=1;strokeWidth=1;rounded=0;endFill=1;" parent="1" edge="1">
          <mxGeometry width="50" height="50" relative="1" as="geometry">
            <mxPoint x="740.0000000000001" y="1160" as="sourcePoint" />
            <mxPoint x="860.0000000000001" y="1160" as="targetPoint" />
          </mxGeometry>
        </mxCell>
        <mxCell id="d5MzQgI0IvsRHTP4QtDK-58" value="&lt;font style=&quot;font-size: 8px;&quot;&gt;chooses human opponent&lt;/font&gt;" style="text;html=1;align=center;verticalAlign=middle;whiteSpace=wrap;rounded=0;" parent="1" vertex="1">
          <mxGeometry x="640" y="-1480" width="100" height="30" as="geometry" />
        </mxCell>
        <mxCell id="i80eWm8D1azyvvJ_BBGj-29" value="&lt;font style=&quot;font-size: 8px;&quot;&gt;Clicks the host button&lt;br&gt;&lt;/font&gt;" style="text;html=1;align=center;verticalAlign=middle;whiteSpace=wrap;rounded=0;" parent="1" vertex="1">
          <mxGeometry x="750.0000000000001" y="1130" width="100" height="30" as="geometry" />
        </mxCell>
        <mxCell id="d5MzQgI0IvsRHTP4QtDK-59" value="" style="endArrow=classic;html=1;rounded=0;strokeWidth=1;" parent="1" edge="1">
          <mxGeometry width="50" height="50" relative="1" as="geometry">
            <mxPoint x="780" y="-1410" as="sourcePoint" />
            <mxPoint x="610" y="-1410" as="targetPoint" />
          </mxGeometry>
        </mxCell>
        <mxCell id="i80eWm8D1azyvvJ_BBGj-30" value="&lt;div&gt;&lt;font style=&quot;font-size: 8px;&quot;&gt;Clicks the join button&lt;/font&gt;&lt;/div&gt;" style="text;html=1;align=center;verticalAlign=middle;whiteSpace=wrap;rounded=0;" parent="1" vertex="1">
          <mxGeometry x="750.0000000000001" y="1349.4299999999998" width="100" height="30" as="geometry" />
        </mxCell>
        <mxCell id="d5MzQgI0IvsRHTP4QtDK-60" value="&lt;font style=&quot;font-size: 8px;&quot;&gt;exception thrown&lt;/font&gt;" style="text;html=1;align=center;verticalAlign=middle;whiteSpace=wrap;rounded=0;" parent="1" vertex="1">
          <mxGeometry x="650" y="-1445" width="80" height="30" as="geometry" />
        </mxCell>
        <mxCell id="i80eWm8D1azyvvJ_BBGj-31" value="" style="endArrow=classicThin;html=1;strokeWidth=1;rounded=0;endFill=1;" parent="1" edge="1">
          <mxGeometry width="50" height="50" relative="1" as="geometry">
            <mxPoint x="740.0000000000001" y="1379.4299999999998" as="sourcePoint" />
            <mxPoint x="860.0000000000001" y="1379.4299999999998" as="targetPoint" />
          </mxGeometry>
        </mxCell>
        <mxCell id="d5MzQgI0IvsRHTP4QtDK-61" value="Connect4&lt;span style=&quot;background-color: initial;&quot;&gt;&amp;nbsp;- AI opponent&lt;/span&gt;" style="rounded=0;whiteSpace=wrap;html=1;" parent="1" vertex="1">
          <mxGeometry x="790" y="-1370" width="120" height="60" as="geometry" />
        </mxCell>
        <mxCell id="d5MzQgI0IvsRHTP4QtDK-62" value="" style="endArrow=classic;html=1;rounded=0;strokeWidth=1;" parent="1" edge="1">
          <mxGeometry width="50" height="50" relative="1" as="geometry">
            <mxPoint x="610" y="-1360" as="sourcePoint" />
            <mxPoint x="780" y="-1360" as="targetPoint" />
          </mxGeometry>
        </mxCell>
        <mxCell id="d5MzQgI0IvsRHTP4QtDK-63" value="&lt;font style=&quot;font-size: 8px;&quot;&gt;chooses AI opponent&lt;/font&gt;" style="text;html=1;align=center;verticalAlign=middle;whiteSpace=wrap;rounded=0;" parent="1" vertex="1">
          <mxGeometry x="647.5" y="-1390" width="85" height="30" as="geometry" />
        </mxCell>
        <mxCell id="d5MzQgI0IvsRHTP4QtDK-64" value="" style="endArrow=classic;html=1;rounded=0;strokeWidth=1;" parent="1" edge="1">
          <mxGeometry width="50" height="50" relative="1" as="geometry">
            <mxPoint x="780" y="-1320" as="sourcePoint" />
            <mxPoint x="610" y="-1320" as="targetPoint" />
          </mxGeometry>
        </mxCell>
        <mxCell id="d5MzQgI0IvsRHTP4QtDK-65" value="&lt;font style=&quot;font-size: 8px;&quot;&gt;asks for difficulty&lt;/font&gt;" style="text;html=1;align=center;verticalAlign=middle;whiteSpace=wrap;rounded=0;" parent="1" vertex="1">
          <mxGeometry x="650" y="-1355" width="80" height="30" as="geometry" />
        </mxCell>
        <mxCell id="d5MzQgI0IvsRHTP4QtDK-66" style="edgeStyle=orthogonalEdgeStyle;rounded=0;orthogonalLoop=1;jettySize=auto;html=1;entryX=0.5;entryY=1;entryDx=0;entryDy=0;shape=link;dashed=1;" parent="1" source="d5MzQgI0IvsRHTP4QtDK-67" target="d5MzQgI0IvsRHTP4QtDK-61" edge="1">
          <mxGeometry relative="1" as="geometry" />
        </mxCell>
        <mxCell id="d5MzQgI0IvsRHTP4QtDK-67" value="Connect4 - AI opponent" style="rounded=0;whiteSpace=wrap;html=1;" parent="1" vertex="1">
          <mxGeometry x="790" y="-1275" width="120" height="60" as="geometry" />
        </mxCell>
        <mxCell id="d5MzQgI0IvsRHTP4QtDK-68" value="" style="endArrow=classic;html=1;rounded=0;strokeWidth=1;" parent="1" edge="1">
          <mxGeometry width="50" height="50" relative="1" as="geometry">
            <mxPoint x="660" y="-1270" as="sourcePoint" />
            <mxPoint x="780" y="-1270" as="targetPoint" />
          </mxGeometry>
        </mxCell>
        <mxCell id="d5MzQgI0IvsRHTP4QtDK-69" value="&lt;font style=&quot;font-size: 8px;&quot;&gt;chooses difficulty&lt;/font&gt;" style="text;html=1;align=center;verticalAlign=middle;whiteSpace=wrap;rounded=0;" parent="1" vertex="1">
          <mxGeometry x="675" y="-1300" width="70" height="30" as="geometry" />
        </mxCell>
        <mxCell id="d5MzQgI0IvsRHTP4QtDK-70" value="" style="endArrow=classic;html=1;rounded=0;strokeWidth=1;" parent="1" edge="1">
          <mxGeometry width="50" height="50" relative="1" as="geometry">
            <mxPoint x="780" y="-1225" as="sourcePoint" />
            <mxPoint x="660" y="-1225" as="targetPoint" />
          </mxGeometry>
        </mxCell>
        <mxCell id="d5MzQgI0IvsRHTP4QtDK-71" value="&lt;font style=&quot;font-size: 8px;&quot;&gt;exception thrown&lt;/font&gt;" style="text;html=1;align=center;verticalAlign=middle;whiteSpace=wrap;rounded=0;" parent="1" vertex="1">
          <mxGeometry x="675" y="-1250" width="80" height="30" as="geometry" />
        </mxCell>
        <mxCell id="d5MzQgI0IvsRHTP4QtDK-97" value="Darts" style="rounded=0;whiteSpace=wrap;html=1;" parent="1" vertex="1">
          <mxGeometry x="532.5" y="-1180" width="120" height="60" as="geometry" />
        </mxCell>
        <mxCell id="YZA2yHX3Mi2ZLETdgS0z-1" value="SkillIssueBro&lt;br&gt;&lt;div&gt;Game of Life&lt;/div&gt;Game" style="rounded=0;whiteSpace=wrap;html=1;" parent="1" vertex="1">
          <mxGeometry x="719.3800000000001" y="-80" width="120" height="60" as="geometry" />
        </mxCell>
        <mxCell id="d5MzQgI0IvsRHTP4QtDK-98" value="" style="endArrow=classic;html=1;rounded=0;strokeWidth=1;" parent="1" edge="1">
          <mxGeometry width="50" height="50" relative="1" as="geometry">
            <mxPoint x="412.5" y="-1160" as="sourcePoint" />
            <mxPoint x="522.5" y="-1160" as="targetPoint" />
          </mxGeometry>
        </mxCell>
        <mxCell id="YZA2yHX3Mi2ZLETdgS0z-2" value="&lt;div style=&quot;font-size: 8px;&quot;&gt;&lt;font style=&quot;font-size: 8px;&quot;&gt;Clicks the Skill Issue Bro&lt;/font&gt;&lt;/div&gt;&lt;div style=&quot;font-size: 8px;&quot;&gt;&lt;font style=&quot;font-size: 8px;&quot;&gt;button&lt;font style=&quot;font-size: 8px;&quot;&gt;&lt;br&gt;&lt;/font&gt;&lt;/font&gt;&lt;/div&gt;" style="text;html=1;align=center;verticalAlign=middle;whiteSpace=wrap;rounded=0;" parent="1" vertex="1">
          <mxGeometry x="629.3800000000001" y="-20" width="100" height="30" as="geometry" />
        </mxCell>
        <mxCell id="d5MzQgI0IvsRHTP4QtDK-99" value="&lt;font style=&quot;font-size: 8px;&quot;&gt;chooses Darts&lt;/font&gt;" style="text;html=1;align=center;verticalAlign=middle;whiteSpace=wrap;rounded=0;" parent="1" vertex="1">
          <mxGeometry x="431.25" y="-1190" width="72.5" height="30" as="geometry" />
        </mxCell>
        <mxCell id="YZA2yHX3Mi2ZLETdgS0z-3" value="" style="endArrow=classicThin;html=1;strokeWidth=1;rounded=0;endFill=1;" parent="1" edge="1">
          <mxGeometry width="50" height="50" relative="1" as="geometry">
            <mxPoint x="599.3800000000001" y="10" as="sourcePoint" />
            <mxPoint x="769.3800000000001" y="10" as="targetPoint" />
          </mxGeometry>
        </mxCell>
        <mxCell id="d5MzQgI0IvsRHTP4QtDK-100" style="edgeStyle=orthogonalEdgeStyle;rounded=0;orthogonalLoop=1;jettySize=auto;html=1;entryX=0.5;entryY=1;entryDx=0;entryDy=0;shape=link;dashed=1;" parent="1" source="d5MzQgI0IvsRHTP4QtDK-101" target="d5MzQgI0IvsRHTP4QtDK-97" edge="1">
          <mxGeometry relative="1" as="geometry" />
        </mxCell>
        <mxCell id="YZA2yHX3Mi2ZLETdgS0z-4" value="&lt;div&gt;SkillIssueBro&lt;/div&gt;Game of Life&lt;br&gt;&lt;div&gt;Host Game&lt;/div&gt;" style="rounded=0;whiteSpace=wrap;html=1;" parent="1" vertex="1">
          <mxGeometry x="859.3800000000001" y="-70" width="120" height="60" as="geometry" />
        </mxCell>
        <mxCell id="d5MzQgI0IvsRHTP4QtDK-101" value="Darts" style="rounded=0;whiteSpace=wrap;html=1;" parent="1" vertex="1">
          <mxGeometry x="532.5" y="-915" width="120" height="60" as="geometry" />
        </mxCell>
        <mxCell id="YZA2yHX3Mi2ZLETdgS0z-5" value="" style="endArrow=classicThin;html=1;strokeWidth=1;rounded=0;endFill=1;" parent="1" edge="1">
          <mxGeometry width="50" height="50" relative="1" as="geometry">
            <mxPoint x="789.3800000000001" y="20" as="sourcePoint" />
            <mxPoint x="909.3800000000001" y="20" as="targetPoint" />
          </mxGeometry>
        </mxCell>
        <mxCell id="d5MzQgI0IvsRHTP4QtDK-102" value="" style="endArrow=classic;html=1;rounded=0;strokeWidth=1;" parent="1" edge="1">
          <mxGeometry width="50" height="50" relative="1" as="geometry">
            <mxPoint x="522.5" y="-1120" as="sourcePoint" />
            <mxPoint x="412.5" y="-1120" as="targetPoint" />
            <Array as="points" />
          </mxGeometry>
        </mxCell>
        <mxCell id="YZA2yHX3Mi2ZLETdgS0z-6" value="&lt;font style=&quot;font-size: 8px;&quot;&gt;Clicks the host game button&lt;br&gt;&lt;/font&gt;" style="text;html=1;align=center;verticalAlign=middle;whiteSpace=wrap;rounded=0;" parent="1" vertex="1">
          <mxGeometry x="799.3800000000001" y="-10" width="100" height="30" as="geometry" />
        </mxCell>
        <mxCell id="d5MzQgI0IvsRHTP4QtDK-103" value="&lt;font style=&quot;font-size: 8px;&quot;&gt;asks to choose opponent (AI or human)&lt;/font&gt;" style="text;html=1;align=center;verticalAlign=middle;whiteSpace=wrap;rounded=0;" parent="1" vertex="1">
          <mxGeometry x="418.75" y="-1150" width="98.75" height="30" as="geometry" />
        </mxCell>
        <mxCell id="YZA2yHX3Mi2ZLETdgS0z-7" value="&lt;div style=&quot;font-size: 8px;&quot;&gt;&lt;font style=&quot;font-size: 8px;&quot;&gt;Clicks the back button&lt;font style=&quot;font-size: 8px;&quot;&gt;&lt;br&gt;&lt;/font&gt;&lt;/font&gt;&lt;/div&gt;" style="text;html=1;align=center;verticalAlign=middle;whiteSpace=wrap;rounded=0;" parent="1" vertex="1">
          <mxGeometry x="799.3800000000001" y="50" width="100" height="30" as="geometry" />
        </mxCell>
        <mxCell id="d5MzQgI0IvsRHTP4QtDK-104" value="" style="endArrow=classic;html=1;rounded=0;strokeWidth=1;" parent="1" edge="1">
          <mxGeometry width="50" height="50" relative="1" as="geometry">
            <mxPoint x="407.5" y="-1090" as="sourcePoint" />
            <mxPoint x="577.5" y="-1090" as="targetPoint" />
          </mxGeometry>
        </mxCell>
        <mxCell id="YZA2yHX3Mi2ZLETdgS0z-8" value="" style="endArrow=none;html=1;rounded=0;startArrow=classic;startFill=1;" parent="1" edge="1">
          <mxGeometry width="50" height="50" relative="1" as="geometry">
            <mxPoint x="789.3800000000001" y="50" as="sourcePoint" />
            <mxPoint x="909.3800000000001" y="50.340000000000146" as="targetPoint" />
          </mxGeometry>
        </mxCell>
        <mxCell id="d5MzQgI0IvsRHTP4QtDK-105" value="&lt;font style=&quot;font-size: 8px;&quot;&gt;chooses opponent&lt;/font&gt;" style="text;html=1;align=center;verticalAlign=middle;whiteSpace=wrap;rounded=0;" parent="1" vertex="1">
          <mxGeometry x="442.5" y="-1110" width="70" height="20" as="geometry" />
        </mxCell>
        <mxCell id="YZA2yHX3Mi2ZLETdgS0z-9" value="&lt;font style=&quot;font-size: 8px;&quot;&gt;Clicks the host button&lt;br&gt;&lt;/font&gt;" style="text;html=1;align=center;verticalAlign=middle;whiteSpace=wrap;rounded=0;" parent="1" vertex="1">
          <mxGeometry x="939.3800000000001" y="10" width="100" height="30" as="geometry" />
        </mxCell>
        <mxCell id="d5MzQgI0IvsRHTP4QtDK-106" value="Darts - human opponent" style="rounded=0;whiteSpace=wrap;html=1;" parent="1" vertex="1">
          <mxGeometry x="792.5" y="-1100" width="120" height="60" as="geometry" />
        </mxCell>
        <mxCell id="YZA2yHX3Mi2ZLETdgS0z-10" value="" style="endArrow=classicThin;html=1;strokeWidth=1;rounded=0;endFill=1;" parent="1" edge="1">
          <mxGeometry width="50" height="50" relative="1" as="geometry">
            <mxPoint x="929.3800000000001" y="40" as="sourcePoint" />
            <mxPoint x="1049.38" y="40" as="targetPoint" />
          </mxGeometry>
        </mxCell>
        <mxCell id="d5MzQgI0IvsRHTP4QtDK-107" value="" style="endArrow=classic;html=1;rounded=0;strokeWidth=1;" parent="1" edge="1">
          <mxGeometry width="50" height="50" relative="1" as="geometry">
            <mxPoint x="612.5" y="-1090" as="sourcePoint" />
            <mxPoint x="782.5" y="-1091.05" as="targetPoint" />
          </mxGeometry>
        </mxCell>
        <mxCell id="YZA2yHX3Mi2ZLETdgS0z-11" value="&lt;div&gt;SkillIssueBro&lt;/div&gt;&lt;div&gt;Game of Life&lt;br&gt;&lt;/div&gt;&lt;div&gt;In Game&lt;/div&gt;" style="rounded=0;whiteSpace=wrap;html=1;" parent="1" vertex="1">
          <mxGeometry x="999.3800000000001" y="-60" width="120" height="60" as="geometry" />
        </mxCell>
        <mxCell id="d5MzQgI0IvsRHTP4QtDK-108" value="&lt;font style=&quot;font-size: 8px;&quot;&gt;chooses human opponent&lt;/font&gt;" style="text;html=1;align=center;verticalAlign=middle;whiteSpace=wrap;rounded=0;" parent="1" vertex="1">
          <mxGeometry x="641.25" y="-1130" width="101.25" height="40" as="geometry" />
        </mxCell>
        <mxCell id="YZA2yHX3Mi2ZLETdgS0z-12" value="&lt;div&gt;SkillIssueBro&lt;/div&gt;&lt;div&gt;Game of Life&lt;br&gt;&lt;/div&gt;Host Game" style="rounded=0;whiteSpace=wrap;html=1;" parent="1" vertex="1">
          <mxGeometry x="859.3800000000001" y="80" width="120" height="60" as="geometry" />
        </mxCell>
        <mxCell id="d5MzQgI0IvsRHTP4QtDK-109" value="" style="endArrow=classic;html=1;rounded=0;strokeWidth=1;" parent="1" edge="1">
          <mxGeometry width="50" height="50" relative="1" as="geometry">
            <mxPoint x="782.5" y="-1050" as="sourcePoint" />
            <mxPoint x="612.5" y="-1050" as="targetPoint" />
          </mxGeometry>
        </mxCell>
        <mxCell id="YZA2yHX3Mi2ZLETdgS0z-13" value="&lt;div&gt;SkillIssueBro&lt;/div&gt;&lt;div&gt;Game of Life&lt;br&gt;&lt;/div&gt;&lt;div&gt;Join Game&lt;/div&gt;" style="rounded=0;whiteSpace=wrap;html=1;" parent="1" vertex="1">
          <mxGeometry x="859.3800000000001" y="150" width="120" height="60" as="geometry" />
        </mxCell>
        <mxCell id="d5MzQgI0IvsRHTP4QtDK-110" value="&lt;font style=&quot;font-size: 8px;&quot;&gt;exception thrown&lt;/font&gt;" style="text;html=1;align=center;verticalAlign=middle;whiteSpace=wrap;rounded=0;" parent="1" vertex="1">
          <mxGeometry x="652.5" y="-1085" width="80" height="30" as="geometry" />
        </mxCell>
        <mxCell id="YZA2yHX3Mi2ZLETdgS0z-14" value="&lt;div&gt;&lt;font style=&quot;font-size: 8px;&quot;&gt;Clicks the join game button&lt;/font&gt;&lt;/div&gt;" style="text;html=1;align=center;verticalAlign=middle;whiteSpace=wrap;rounded=0;" parent="1" vertex="1">
          <mxGeometry x="799.3800000000001" y="210" width="100" height="30" as="geometry" />
        </mxCell>
        <mxCell id="d5MzQgI0IvsRHTP4QtDK-111" value="Darts&lt;span style=&quot;background-color: initial;&quot;&gt;&amp;nbsp;- AI opponent&lt;/span&gt;" style="rounded=0;whiteSpace=wrap;html=1;" parent="1" vertex="1">
          <mxGeometry x="792.5" y="-1010" width="120" height="60" as="geometry" />
        </mxCell>
        <mxCell id="YZA2yHX3Mi2ZLETdgS0z-15" value="" style="endArrow=classicThin;html=1;strokeWidth=1;rounded=0;endFill=1;" parent="1" edge="1">
          <mxGeometry width="50" height="50" relative="1" as="geometry">
            <mxPoint x="789.3800000000001" y="240" as="sourcePoint" />
            <mxPoint x="909.3800000000001" y="240" as="targetPoint" />
          </mxGeometry>
        </mxCell>
        <mxCell id="d5MzQgI0IvsRHTP4QtDK-112" value="" style="endArrow=classic;html=1;rounded=0;strokeWidth=1;" parent="1" edge="1">
          <mxGeometry width="50" height="50" relative="1" as="geometry">
            <mxPoint x="612.5" y="-1000" as="sourcePoint" />
            <mxPoint x="782.5" y="-1000" as="targetPoint" />
          </mxGeometry>
        </mxCell>
        <mxCell id="YZA2yHX3Mi2ZLETdgS0z-16" value="&lt;div style=&quot;font-size: 8px;&quot;&gt;&lt;font style=&quot;font-size: 8px;&quot;&gt;Clicks the back button&lt;font style=&quot;font-size: 8px;&quot;&gt;&lt;br&gt;&lt;/font&gt;&lt;/font&gt;&lt;/div&gt;" style="text;html=1;align=center;verticalAlign=middle;whiteSpace=wrap;rounded=0;" parent="1" vertex="1">
          <mxGeometry x="799.3800000000001" y="270" width="100" height="30" as="geometry" />
        </mxCell>
        <mxCell id="d5MzQgI0IvsRHTP4QtDK-113" value="&lt;font style=&quot;font-size: 8px;&quot;&gt;chooses AI opponent&lt;/font&gt;" style="text;html=1;align=center;verticalAlign=middle;whiteSpace=wrap;rounded=0;" parent="1" vertex="1">
          <mxGeometry x="650" y="-1030" width="85" height="30" as="geometry" />
        </mxCell>
        <mxCell id="YZA2yHX3Mi2ZLETdgS0z-17" value="" style="endArrow=none;html=1;rounded=0;startArrow=classic;startFill=1;" parent="1" edge="1">
          <mxGeometry width="50" height="50" relative="1" as="geometry">
            <mxPoint x="789.3800000000001" y="270" as="sourcePoint" />
            <mxPoint x="909.3800000000001" y="270.34000000000015" as="targetPoint" />
          </mxGeometry>
        </mxCell>
        <mxCell id="d5MzQgI0IvsRHTP4QtDK-114" value="" style="endArrow=classic;html=1;rounded=0;strokeWidth=1;" parent="1" edge="1">
          <mxGeometry width="50" height="50" relative="1" as="geometry">
            <mxPoint x="782.5" y="-960" as="sourcePoint" />
            <mxPoint x="612.5" y="-960" as="targetPoint" />
          </mxGeometry>
        </mxCell>
        <mxCell id="YZA2yHX3Mi2ZLETdgS0z-18" value="" style="endArrow=classicThin;html=1;strokeWidth=1;rounded=0;endFill=1;" parent="1" edge="1">
          <mxGeometry width="50" height="50" relative="1" as="geometry">
            <mxPoint x="929.3800000000001" y="259.42999999999984" as="sourcePoint" />
            <mxPoint x="1049.38" y="259.42999999999984" as="targetPoint" />
          </mxGeometry>
        </mxCell>
        <mxCell id="d5MzQgI0IvsRHTP4QtDK-115" value="&lt;font style=&quot;font-size: 8px;&quot;&gt;asks for difficulty&lt;/font&gt;" style="text;html=1;align=center;verticalAlign=middle;whiteSpace=wrap;rounded=0;" parent="1" vertex="1">
          <mxGeometry x="652.5" y="-995" width="80" height="30" as="geometry" />
        </mxCell>
        <mxCell id="YZA2yHX3Mi2ZLETdgS0z-19" value="&lt;div&gt;&lt;font style=&quot;font-size: 8px;&quot;&gt;Clicks the join button&lt;/font&gt;&lt;/div&gt;" style="text;html=1;align=center;verticalAlign=middle;whiteSpace=wrap;rounded=0;" parent="1" vertex="1">
          <mxGeometry x="939.3800000000001" y="229.42999999999984" width="100" height="30" as="geometry" />
        </mxCell>
        <mxCell id="d5MzQgI0IvsRHTP4QtDK-116" style="edgeStyle=orthogonalEdgeStyle;rounded=0;orthogonalLoop=1;jettySize=auto;html=1;entryX=0.5;entryY=1;entryDx=0;entryDy=0;shape=link;dashed=1;" parent="1" source="d5MzQgI0IvsRHTP4QtDK-117" target="d5MzQgI0IvsRHTP4QtDK-111" edge="1">
          <mxGeometry relative="1" as="geometry" />
        </mxCell>
        <mxCell id="YZA2yHX3Mi2ZLETdgS0z-20" value="&lt;div&gt;SkillIssueBro&lt;/div&gt;&lt;div&gt;Game of Life&lt;br&gt;&lt;/div&gt;&lt;div&gt;In Game&lt;/div&gt;" style="rounded=0;whiteSpace=wrap;html=1;" parent="1" vertex="1">
          <mxGeometry x="999.3800000000001" y="290" width="120" height="60" as="geometry" />
        </mxCell>
        <mxCell id="d5MzQgI0IvsRHTP4QtDK-117" value="Darts - AI opponent" style="rounded=0;whiteSpace=wrap;html=1;" parent="1" vertex="1">
          <mxGeometry x="792.5" y="-915" width="120" height="60" as="geometry" />
        </mxCell>
        <mxCell id="YZA2yHX3Mi2ZLETdgS0z-21" value="&lt;div&gt;SkillIssueBro&lt;/div&gt;&lt;div&gt;Game of Life&lt;br&gt;&lt;/div&gt;&lt;div&gt;Join Game&lt;/div&gt;" style="rounded=0;whiteSpace=wrap;html=1;" parent="1" vertex="1">
          <mxGeometry x="859.3800000000001" y="300" width="120" height="60" as="geometry" />
        </mxCell>
        <mxCell id="d5MzQgI0IvsRHTP4QtDK-118" value="" style="endArrow=classic;html=1;rounded=0;strokeWidth=1;" parent="1" edge="1">
          <mxGeometry width="50" height="50" relative="1" as="geometry">
            <mxPoint x="662.5" y="-910" as="sourcePoint" />
            <mxPoint x="782.5" y="-910" as="targetPoint" />
          </mxGeometry>
        </mxCell>
        <mxCell id="YZA2yHX3Mi2ZLETdgS0z-22" value="&lt;div&gt;SkillIssueBro&lt;/div&gt;&lt;div&gt;Game of Life&lt;br&gt;&lt;/div&gt;Game" style="rounded=0;whiteSpace=wrap;html=1;" parent="1" vertex="1">
          <mxGeometry x="719.3800000000001" y="310" width="120" height="60" as="geometry" />
        </mxCell>
        <mxCell id="d5MzQgI0IvsRHTP4QtDK-119" value="&lt;font style=&quot;font-size: 8px;&quot;&gt;chooses difficulty&lt;/font&gt;" style="text;html=1;align=center;verticalAlign=middle;whiteSpace=wrap;rounded=0;" parent="1" vertex="1">
          <mxGeometry x="677.5" y="-940" width="70" height="30" as="geometry" />
        </mxCell>
        <mxCell id="YZA2yHX3Mi2ZLETdgS0z-23" value="&lt;div style=&quot;font-size: 8px;&quot;&gt;&lt;font style=&quot;font-size: 8px;&quot;&gt;Clicks the back&lt;/font&gt;&lt;/div&gt;&lt;div style=&quot;font-size: 8px;&quot;&gt;&lt;font style=&quot;font-size: 8px;&quot;&gt;button&lt;font style=&quot;font-size: 8px;&quot;&gt;&lt;br&gt;&lt;/font&gt;&lt;/font&gt;&lt;/div&gt;" style="text;html=1;align=center;verticalAlign=middle;whiteSpace=wrap;rounded=0;" parent="1" vertex="1">
          <mxGeometry x="629.3800000000001" y="290" width="100" height="30" as="geometry" />
        </mxCell>
        <mxCell id="d5MzQgI0IvsRHTP4QtDK-120" value="" style="endArrow=classic;html=1;rounded=0;strokeWidth=1;" parent="1" edge="1">
          <mxGeometry width="50" height="50" relative="1" as="geometry">
            <mxPoint x="782.5" y="-865" as="sourcePoint" />
            <mxPoint x="662.5" y="-865" as="targetPoint" />
          </mxGeometry>
        </mxCell>
        <mxCell id="YZA2yHX3Mi2ZLETdgS0z-24" value="" style="endArrow=none;html=1;rounded=0;startArrow=classic;startFill=1;" parent="1" edge="1">
          <mxGeometry width="50" height="50" relative="1" as="geometry">
            <mxPoint x="599.3800000000001" y="284.65999999999985" as="sourcePoint" />
            <mxPoint x="769.3800000000001" y="284.65999999999985" as="targetPoint" />
          </mxGeometry>
        </mxCell>
        <mxCell id="d5MzQgI0IvsRHTP4QtDK-121" value="&lt;font style=&quot;font-size: 8px;&quot;&gt;exception thrown&lt;/font&gt;" style="text;html=1;align=center;verticalAlign=middle;whiteSpace=wrap;rounded=0;" parent="1" vertex="1">
          <mxGeometry x="677.5" y="-890" width="80" height="30" as="geometry" />
        </mxCell>
        <mxCell id="YZA2yHX3Mi2ZLETdgS0z-27" value="" style="endArrow=none;dashed=1;html=1;strokeWidth=1;rounded=0;entryX=0.5;entryY=1;entryDx=0;entryDy=0;exitX=0.5;exitY=0;exitDx=0;exitDy=0;shape=link;" parent="1" source="YZA2yHX3Mi2ZLETdgS0z-22" target="YZA2yHX3Mi2ZLETdgS0z-1" edge="1">
          <mxGeometry width="50" height="50" relative="1" as="geometry">
            <mxPoint x="719.3800000000001" y="170" as="sourcePoint" />
            <mxPoint x="769.3800000000001" y="120" as="targetPoint" />
          </mxGeometry>
        </mxCell>
        <mxCell id="d5MzQgI0IvsRHTP4QtDK-122" value="Obstruction" style="rounded=0;whiteSpace=wrap;html=1;" parent="1" vertex="1">
          <mxGeometry x="530" y="-820" width="120" height="60" as="geometry" />
        </mxCell>
        <mxCell id="YZA2yHX3Mi2ZLETdgS0z-28" value="" style="endArrow=none;dashed=1;html=1;strokeWidth=1;rounded=0;entryX=0.5;entryY=1;entryDx=0;entryDy=0;exitX=0.5;exitY=0;exitDx=0;exitDy=0;shape=link;" parent="1" source="YZA2yHX3Mi2ZLETdgS0z-21" target="YZA2yHX3Mi2ZLETdgS0z-13" edge="1">
          <mxGeometry width="50" height="50" relative="1" as="geometry">
            <mxPoint x="859.3800000000001" y="450" as="sourcePoint" />
            <mxPoint x="859.3800000000001" y="120" as="targetPoint" />
          </mxGeometry>
        </mxCell>
        <mxCell id="d5MzQgI0IvsRHTP4QtDK-123" value="" style="endArrow=classic;html=1;rounded=0;strokeWidth=1;" parent="1" edge="1">
          <mxGeometry width="50" height="50" relative="1" as="geometry">
            <mxPoint x="410" y="-800" as="sourcePoint" />
            <mxPoint x="520" y="-800" as="targetPoint" />
          </mxGeometry>
        </mxCell>
        <mxCell id="YZA2yHX3Mi2ZLETdgS0z-29" value="" style="endArrow=none;dashed=1;html=1;strokeWidth=1;rounded=0;entryX=0.5;entryY=1;entryDx=0;entryDy=0;exitX=0.5;exitY=0;exitDx=0;exitDy=0;shape=link;" parent="1" source="YZA2yHX3Mi2ZLETdgS0z-12" target="YZA2yHX3Mi2ZLETdgS0z-4" edge="1">
          <mxGeometry width="50" height="50" relative="1" as="geometry">
            <mxPoint x="919.3800000000001" y="10" as="sourcePoint" />
            <mxPoint x="919.3800000000001" y="-80" as="targetPoint" />
          </mxGeometry>
        </mxCell>
        <mxCell id="d5MzQgI0IvsRHTP4QtDK-124" value="&lt;font style=&quot;font-size: 8px;&quot;&gt;chooses Obstruction&lt;/font&gt;" style="text;html=1;align=center;verticalAlign=middle;whiteSpace=wrap;rounded=0;" parent="1" vertex="1">
          <mxGeometry x="426.88" y="-830" width="81.25" height="30" as="geometry" />
        </mxCell>
        <mxCell id="YZA2yHX3Mi2ZLETdgS0z-30" value="" style="endArrow=none;dashed=1;html=1;strokeWidth=1;rounded=0;exitX=0.5;exitY=0;exitDx=0;exitDy=0;shape=link;entryX=0.5;entryY=1;entryDx=0;entryDy=0;" parent="1" source="YZA2yHX3Mi2ZLETdgS0z-20" target="YZA2yHX3Mi2ZLETdgS0z-11" edge="1">
          <mxGeometry width="50" height="50" relative="1" as="geometry">
            <mxPoint x="1059.38" y="10" as="sourcePoint" />
            <mxPoint x="1039.38" y="-70" as="targetPoint" />
          </mxGeometry>
        </mxCell>
        <mxCell id="d5MzQgI0IvsRHTP4QtDK-125" style="edgeStyle=orthogonalEdgeStyle;rounded=0;orthogonalLoop=1;jettySize=auto;html=1;entryX=0.5;entryY=1;entryDx=0;entryDy=0;shape=link;dashed=1;" parent="1" source="d5MzQgI0IvsRHTP4QtDK-126" target="d5MzQgI0IvsRHTP4QtDK-122" edge="1">
          <mxGeometry relative="1" as="geometry" />
        </mxCell>
        <mxCell id="d5MzQgI0IvsRHTP4QtDK-126" value="Obstruction" style="rounded=0;whiteSpace=wrap;html=1;" parent="1" vertex="1">
          <mxGeometry x="530" y="-462" width="120" height="60" as="geometry" />
        </mxCell>
        <mxCell id="d5MzQgI0IvsRHTP4QtDK-127" value="" style="endArrow=classic;html=1;rounded=0;strokeWidth=1;" parent="1" edge="1">
          <mxGeometry width="50" height="50" relative="1" as="geometry">
            <mxPoint x="580" y="-667" as="sourcePoint" />
            <mxPoint x="410" y="-667" as="targetPoint" />
            <Array as="points" />
          </mxGeometry>
        </mxCell>
        <mxCell id="d5MzQgI0IvsRHTP4QtDK-128" value="&lt;font style=&quot;font-size: 8px;&quot;&gt;asks to choose opponent (AI or human)&lt;/font&gt;" style="text;html=1;align=center;verticalAlign=middle;whiteSpace=wrap;rounded=0;" parent="1" vertex="1">
          <mxGeometry x="440" y="-697" width="101.25" height="30" as="geometry" />
        </mxCell>
        <mxCell id="d5MzQgI0IvsRHTP4QtDK-129" value="" style="endArrow=classic;html=1;rounded=0;strokeWidth=1;" parent="1" edge="1">
          <mxGeometry width="50" height="50" relative="1" as="geometry">
            <mxPoint x="405.63" y="-637.48" as="sourcePoint" />
            <mxPoint x="575.63" y="-637.48" as="targetPoint" />
          </mxGeometry>
        </mxCell>
        <mxCell id="d5MzQgI0IvsRHTP4QtDK-130" value="&lt;font style=&quot;font-size: 8px;&quot;&gt;chooses opponent&lt;/font&gt;" style="text;html=1;align=center;verticalAlign=middle;whiteSpace=wrap;rounded=0;" parent="1" vertex="1">
          <mxGeometry x="452.5" y="-657" width="70" height="20" as="geometry" />
        </mxCell>
        <mxCell id="d5MzQgI0IvsRHTP4QtDK-131" value="Obstruction - human opponent" style="rounded=0;whiteSpace=wrap;html=1;" parent="1" vertex="1">
          <mxGeometry x="790" y="-647" width="120" height="60" as="geometry" />
        </mxCell>
        <mxCell id="d5MzQgI0IvsRHTP4QtDK-132" value="" style="endArrow=classic;html=1;rounded=0;strokeWidth=1;" parent="1" edge="1">
          <mxGeometry width="50" height="50" relative="1" as="geometry">
            <mxPoint x="610" y="-637" as="sourcePoint" />
            <mxPoint x="780" y="-638.05" as="targetPoint" />
          </mxGeometry>
        </mxCell>
        <mxCell id="d5MzQgI0IvsRHTP4QtDK-133" value="&lt;font style=&quot;font-size: 8px;&quot;&gt;chooses human opponent&lt;/font&gt;" style="text;html=1;align=center;verticalAlign=middle;whiteSpace=wrap;rounded=0;" parent="1" vertex="1">
          <mxGeometry x="640" y="-667" width="100" height="30" as="geometry" />
        </mxCell>
        <mxCell id="d5MzQgI0IvsRHTP4QtDK-134" value="" style="endArrow=classic;html=1;rounded=0;strokeWidth=1;" parent="1" edge="1">
          <mxGeometry width="50" height="50" relative="1" as="geometry">
            <mxPoint x="780" y="-597" as="sourcePoint" />
            <mxPoint x="610" y="-597" as="targetPoint" />
          </mxGeometry>
        </mxCell>
        <mxCell id="d5MzQgI0IvsRHTP4QtDK-135" value="&lt;font style=&quot;font-size: 8px;&quot;&gt;exception thrown&lt;/font&gt;" style="text;html=1;align=center;verticalAlign=middle;whiteSpace=wrap;rounded=0;" parent="1" vertex="1">
          <mxGeometry x="650" y="-632" width="80" height="30" as="geometry" />
        </mxCell>
        <mxCell id="d5MzQgI0IvsRHTP4QtDK-136" value="Obstruction&lt;span style=&quot;background-color: initial;&quot;&gt;&amp;nbsp;- AI opponent&lt;/span&gt;" style="rounded=0;whiteSpace=wrap;html=1;" parent="1" vertex="1">
          <mxGeometry x="790" y="-557" width="120" height="60" as="geometry" />
        </mxCell>
        <mxCell id="d5MzQgI0IvsRHTP4QtDK-137" value="" style="endArrow=classic;html=1;rounded=0;strokeWidth=1;" parent="1" edge="1">
          <mxGeometry width="50" height="50" relative="1" as="geometry">
            <mxPoint x="610" y="-547" as="sourcePoint" />
            <mxPoint x="780" y="-547" as="targetPoint" />
          </mxGeometry>
        </mxCell>
        <mxCell id="d5MzQgI0IvsRHTP4QtDK-138" value="&lt;font style=&quot;font-size: 8px;&quot;&gt;chooses AI opponent&lt;/font&gt;" style="text;html=1;align=center;verticalAlign=middle;whiteSpace=wrap;rounded=0;" parent="1" vertex="1">
          <mxGeometry x="647.5" y="-577" width="85" height="30" as="geometry" />
        </mxCell>
        <mxCell id="d5MzQgI0IvsRHTP4QtDK-139" value="" style="endArrow=classic;html=1;rounded=0;strokeWidth=1;" parent="1" edge="1">
          <mxGeometry width="50" height="50" relative="1" as="geometry">
            <mxPoint x="780" y="-507" as="sourcePoint" />
            <mxPoint x="610" y="-507" as="targetPoint" />
          </mxGeometry>
        </mxCell>
        <mxCell id="d5MzQgI0IvsRHTP4QtDK-140" value="&lt;font style=&quot;font-size: 8px;&quot;&gt;asks for difficulty&lt;/font&gt;" style="text;html=1;align=center;verticalAlign=middle;whiteSpace=wrap;rounded=0;" parent="1" vertex="1">
          <mxGeometry x="650" y="-542" width="80" height="30" as="geometry" />
        </mxCell>
        <mxCell id="d5MzQgI0IvsRHTP4QtDK-141" style="edgeStyle=orthogonalEdgeStyle;rounded=0;orthogonalLoop=1;jettySize=auto;html=1;entryX=0.5;entryY=1;entryDx=0;entryDy=0;shape=link;dashed=1;" parent="1" source="d5MzQgI0IvsRHTP4QtDK-142" target="d5MzQgI0IvsRHTP4QtDK-136" edge="1">
          <mxGeometry relative="1" as="geometry" />
        </mxCell>
        <mxCell id="d5MzQgI0IvsRHTP4QtDK-142" value="Obstruction - AI opponent" style="rounded=0;whiteSpace=wrap;html=1;" parent="1" vertex="1">
          <mxGeometry x="790" y="-462" width="120" height="60" as="geometry" />
        </mxCell>
        <mxCell id="d5MzQgI0IvsRHTP4QtDK-143" value="" style="endArrow=classic;html=1;rounded=0;strokeWidth=1;" parent="1" edge="1">
          <mxGeometry width="50" height="50" relative="1" as="geometry">
            <mxPoint x="660" y="-457" as="sourcePoint" />
            <mxPoint x="780" y="-457" as="targetPoint" />
          </mxGeometry>
        </mxCell>
        <mxCell id="d5MzQgI0IvsRHTP4QtDK-144" value="&lt;font style=&quot;font-size: 8px;&quot;&gt;chooses difficulty&lt;/font&gt;" style="text;html=1;align=center;verticalAlign=middle;whiteSpace=wrap;rounded=0;" parent="1" vertex="1">
          <mxGeometry x="675" y="-487" width="70" height="30" as="geometry" />
        </mxCell>
        <mxCell id="d5MzQgI0IvsRHTP4QtDK-145" value="" style="endArrow=classic;html=1;rounded=0;strokeWidth=1;" parent="1" edge="1">
          <mxGeometry width="50" height="50" relative="1" as="geometry">
            <mxPoint x="780" y="-412" as="sourcePoint" />
            <mxPoint x="660" y="-412" as="targetPoint" />
          </mxGeometry>
        </mxCell>
        <mxCell id="d5MzQgI0IvsRHTP4QtDK-146" value="&lt;font style=&quot;font-size: 8px;&quot;&gt;exception thrown&lt;/font&gt;" style="text;html=1;align=center;verticalAlign=middle;whiteSpace=wrap;rounded=0;" parent="1" vertex="1">
          <mxGeometry x="675" y="-437" width="80" height="30" as="geometry" />
        </mxCell>
        <mxCell id="d5MzQgI0IvsRHTP4QtDK-147" value="" style="endArrow=classic;html=1;rounded=0;strokeWidth=1;" parent="1" edge="1">
          <mxGeometry width="50" height="50" relative="1" as="geometry">
            <mxPoint x="522.5" y="-760.48" as="sourcePoint" />
            <mxPoint x="412.5" y="-760.48" as="targetPoint" />
            <Array as="points" />
          </mxGeometry>
        </mxCell>
        <mxCell id="d5MzQgI0IvsRHTP4QtDK-148" value="&lt;font style=&quot;font-size: 8px;&quot;&gt;asks to choose grid size&lt;/font&gt;" style="text;html=1;align=center;verticalAlign=middle;whiteSpace=wrap;rounded=0;" parent="1" vertex="1">
          <mxGeometry x="418.75" y="-790.48" width="98.75" height="30" as="geometry" />
        </mxCell>
        <mxCell id="d5MzQgI0IvsRHTP4QtDK-149" value="" style="endArrow=classic;html=1;rounded=0;strokeWidth=1;" parent="1" edge="1">
          <mxGeometry width="50" height="50" relative="1" as="geometry">
            <mxPoint x="415" y="-720" as="sourcePoint" />
            <mxPoint x="585" y="-720" as="targetPoint" />
          </mxGeometry>
        </mxCell>
        <mxCell id="d5MzQgI0IvsRHTP4QtDK-150" value="&lt;font style=&quot;font-size: 8px;&quot;&gt;chooses grid size&lt;/font&gt;" style="text;html=1;align=center;verticalAlign=middle;whiteSpace=wrap;rounded=0;" parent="1" vertex="1">
          <mxGeometry x="450" y="-740" width="70" height="20" as="geometry" />
        </mxCell>
        <mxCell id="MuQ0PQbIv6fsbAUj5o-P-7" value="SkillIssueBro&lt;br&gt;&lt;div&gt;Game of Life&lt;/div&gt;&lt;div&gt;Settings&lt;/div&gt;" style="rounded=0;whiteSpace=wrap;html=1;" parent="1" vertex="1">
          <mxGeometry x="719.3800000000001" y="380" width="120" height="60" as="geometry" />
        </mxCell>
        <mxCell id="MuQ0PQbIv6fsbAUj5o-P-8" value="&lt;div style=&quot;font-size: 8px;&quot;&gt;&lt;font style=&quot;font-size: 8px;&quot;&gt;Clicks the settings&lt;br&gt;&lt;/font&gt;&lt;/div&gt;&lt;div style=&quot;font-size: 8px;&quot;&gt;&lt;font style=&quot;font-size: 8px;&quot;&gt;button&lt;font style=&quot;font-size: 8px;&quot;&gt;&lt;br&gt;&lt;/font&gt;&lt;/font&gt;&lt;/div&gt;" style="text;html=1;align=center;verticalAlign=middle;whiteSpace=wrap;rounded=0;" parent="1" vertex="1">
          <mxGeometry x="629.3800000000001" y="440" width="100" height="30" as="geometry" />
        </mxCell>
        <mxCell id="MuQ0PQbIv6fsbAUj5o-P-9" value="" style="endArrow=classicThin;html=1;strokeWidth=1;rounded=0;endFill=1;" parent="1" edge="1">
          <mxGeometry width="50" height="50" relative="1" as="geometry">
            <mxPoint x="599.3800000000001" y="470" as="sourcePoint" />
            <mxPoint x="769.3800000000001" y="470" as="targetPoint" />
          </mxGeometry>
        </mxCell>
        <mxCell id="MuQ0PQbIv6fsbAUj5o-P-10" value="" style="endArrow=none;html=1;rounded=0;startArrow=classic;startFill=1;" parent="1" edge="1">
          <mxGeometry width="50" height="50" relative="1" as="geometry">
            <mxPoint x="599.3800000000001" y="919.9999999999998" as="sourcePoint" />
            <mxPoint x="769.3800000000001" y="919.9999999999998" as="targetPoint" />
          </mxGeometry>
        </mxCell>
        <mxCell id="MuQ0PQbIv6fsbAUj5o-P-11" value="&lt;div style=&quot;font-size: 8px;&quot;&gt;&lt;font style=&quot;font-size: 8px;&quot;&gt;Clicks the back&lt;/font&gt;&lt;/div&gt;&lt;div style=&quot;font-size: 8px;&quot;&gt;&lt;font style=&quot;font-size: 8px;&quot;&gt;button&lt;font style=&quot;font-size: 8px;&quot;&gt;&lt;br&gt;&lt;/font&gt;&lt;/font&gt;&lt;/div&gt;" style="text;html=1;align=center;verticalAlign=middle;whiteSpace=wrap;rounded=0;" parent="1" vertex="1">
          <mxGeometry x="629.3800000000001" y="925.3399999999999" width="100" height="30" as="geometry" />
        </mxCell>
        <mxCell id="MuQ0PQbIv6fsbAUj5o-P-12" value="&lt;div&gt;SkillIssueBro&lt;/div&gt;&lt;div&gt;Game of Life&lt;br&gt;&lt;/div&gt;Settings" style="rounded=0;whiteSpace=wrap;html=1;" parent="1" vertex="1">
          <mxGeometry x="719.3800000000001" y="945.3399999999999" width="120" height="60" as="geometry" />
        </mxCell>
        <mxCell id="MuQ0PQbIv6fsbAUj5o-P-13" value="" style="endArrow=none;dashed=1;html=1;strokeWidth=1;rounded=0;entryX=0.5;entryY=1;entryDx=0;entryDy=0;shape=link;" parent="1" source="MuQ0PQbIv6fsbAUj5o-P-12" edge="1">
          <mxGeometry width="50" height="50" relative="1" as="geometry">
            <mxPoint x="778.69" y="770" as="sourcePoint" />
            <mxPoint x="778.69" y="440" as="targetPoint" />
          </mxGeometry>
        </mxCell>
        <mxCell id="MuQ0PQbIv6fsbAUj5o-P-29" value="SkillIssueBro&lt;br&gt;&lt;div&gt;Game of Life&lt;/div&gt;&lt;div&gt;Pawn Style&lt;/div&gt;" style="rounded=0;whiteSpace=wrap;html=1;" parent="1" vertex="1">
          <mxGeometry x="909.3800000000001" y="390" width="120" height="60" as="geometry" />
        </mxCell>
        <mxCell id="MuQ0PQbIv6fsbAUj5o-P-30" value="&lt;div style=&quot;font-size: 8px;&quot;&gt;&lt;font style=&quot;font-size: 8px;&quot;&gt;Click the pawn style button&lt;br&gt;&lt;/font&gt;&lt;/div&gt;" style="text;html=1;align=center;verticalAlign=middle;whiteSpace=wrap;rounded=0;" parent="1" vertex="1">
          <mxGeometry x="819.3800000000001" y="440" width="100" height="30" as="geometry" />
        </mxCell>
        <mxCell id="MuQ0PQbIv6fsbAUj5o-P-31" value="" style="endArrow=classicThin;html=1;strokeWidth=1;rounded=0;endFill=1;" parent="1" edge="1">
          <mxGeometry width="50" height="50" relative="1" as="geometry">
            <mxPoint x="789.3800000000001" y="470" as="sourcePoint" />
            <mxPoint x="959.3800000000001" y="470" as="targetPoint" />
          </mxGeometry>
        </mxCell>
        <mxCell id="MuQ0PQbIv6fsbAUj5o-P-32" value="" style="endArrow=none;dashed=1;html=1;strokeWidth=1;rounded=0;shape=link;exitX=0.5;exitY=0;exitDx=0;exitDy=0;" parent="1" source="MuQ0PQbIv6fsbAUj5o-P-35" edge="1">
          <mxGeometry width="50" height="50" relative="1" as="geometry">
            <mxPoint x="969.3800000000001" y="490" as="sourcePoint" />
            <mxPoint x="968.3800000000001" y="450" as="targetPoint" />
          </mxGeometry>
        </mxCell>
        <mxCell id="MuQ0PQbIv6fsbAUj5o-P-33" value="" style="endArrow=none;html=1;rounded=0;startArrow=classic;startFill=1;" parent="1" edge="1">
          <mxGeometry width="50" height="50" relative="1" as="geometry">
            <mxPoint x="789.3800000000001" y="489.9999999999999" as="sourcePoint" />
            <mxPoint x="959.3800000000001" y="489.9999999999999" as="targetPoint" />
          </mxGeometry>
        </mxCell>
        <mxCell id="MuQ0PQbIv6fsbAUj5o-P-34" value="&lt;div style=&quot;font-size: 8px;&quot;&gt;&lt;font style=&quot;font-size: 8px;&quot;&gt;Clicks the back&lt;/font&gt;&lt;/div&gt;&lt;div style=&quot;font-size: 8px;&quot;&gt;&lt;font style=&quot;font-size: 8px;&quot;&gt;button&lt;font style=&quot;font-size: 8px;&quot;&gt;&lt;br&gt;&lt;/font&gt;&lt;/font&gt;&lt;/div&gt;" style="text;html=1;align=center;verticalAlign=middle;whiteSpace=wrap;rounded=0;" parent="1" vertex="1">
          <mxGeometry x="819.3800000000001" y="490" width="100" height="30" as="geometry" />
        </mxCell>
        <mxCell id="MuQ0PQbIv6fsbAUj5o-P-35" value="&lt;div&gt;SkillIssueBro&lt;/div&gt;&lt;div&gt;Game of Life&lt;br&gt;&lt;/div&gt;&lt;div&gt;Pawn Style&lt;/div&gt;" style="rounded=0;whiteSpace=wrap;html=1;" parent="1" vertex="1">
          <mxGeometry x="909.3800000000001" y="510" width="120" height="60" as="geometry" />
        </mxCell>
        <mxCell id="MuQ0PQbIv6fsbAUj5o-P-36" value="&lt;div&gt;SkillIssueBro&lt;/div&gt;&lt;div&gt;Game of Life&lt;br&gt;&lt;/div&gt;&lt;div&gt;Board Style&lt;br&gt;&lt;/div&gt;" style="rounded=0;whiteSpace=wrap;html=1;" parent="1" vertex="1">
          <mxGeometry x="909.3800000000001" y="700" width="120" height="60" as="geometry" />
        </mxCell>
        <mxCell id="MuQ0PQbIv6fsbAUj5o-P-37" value="" style="endArrow=none;html=1;rounded=0;startArrow=classic;startFill=1;" parent="1" edge="1">
          <mxGeometry width="50" height="50" relative="1" as="geometry">
            <mxPoint x="789.3800000000001" y="680" as="sourcePoint" />
            <mxPoint x="959.3800000000001" y="680" as="targetPoint" />
          </mxGeometry>
        </mxCell>
        <mxCell id="MuQ0PQbIv6fsbAUj5o-P-38" value="" style="endArrow=classicThin;html=1;strokeWidth=1;rounded=0;endFill=1;" parent="1" edge="1">
          <mxGeometry width="50" height="50" relative="1" as="geometry">
            <mxPoint x="789.3800000000001" y="660" as="sourcePoint" />
            <mxPoint x="959.3800000000001" y="660" as="targetPoint" />
          </mxGeometry>
        </mxCell>
        <mxCell id="MuQ0PQbIv6fsbAUj5o-P-39" value="&lt;div style=&quot;font-size: 8px;&quot;&gt;&lt;font style=&quot;font-size: 8px;&quot;&gt;Click the board style button&lt;br&gt;&lt;/font&gt;&lt;/div&gt;" style="text;html=1;align=center;verticalAlign=middle;whiteSpace=wrap;rounded=0;" parent="1" vertex="1">
          <mxGeometry x="819.3800000000001" y="630" width="100" height="30" as="geometry" />
        </mxCell>
        <mxCell id="MuQ0PQbIv6fsbAUj5o-P-40" value="SkillIssueBro&lt;br&gt;&lt;div&gt;Game of Life&lt;/div&gt;&lt;div&gt;Board Style&lt;br&gt;&lt;/div&gt;" style="rounded=0;whiteSpace=wrap;html=1;" parent="1" vertex="1">
          <mxGeometry x="909.3800000000001" y="580" width="120" height="60" as="geometry" />
        </mxCell>
        <mxCell id="MuQ0PQbIv6fsbAUj5o-P-41" value="" style="endArrow=none;dashed=1;html=1;strokeWidth=1;rounded=0;shape=link;exitX=0.5;exitY=0;exitDx=0;exitDy=0;" parent="1" source="MuQ0PQbIv6fsbAUj5o-P-36" edge="1">
          <mxGeometry width="50" height="50" relative="1" as="geometry">
            <mxPoint x="969.3800000000001" y="680" as="sourcePoint" />
            <mxPoint x="968.3800000000001" y="640" as="targetPoint" />
          </mxGeometry>
        </mxCell>
        <mxCell id="MuQ0PQbIv6fsbAUj5o-P-42" value="&lt;div style=&quot;font-size: 8px;&quot;&gt;&lt;font style=&quot;font-size: 8px;&quot;&gt;Clicks the back&lt;/font&gt;&lt;/div&gt;&lt;div style=&quot;font-size: 8px;&quot;&gt;&lt;font style=&quot;font-size: 8px;&quot;&gt;button&lt;font style=&quot;font-size: 8px;&quot;&gt;&lt;br&gt;&lt;/font&gt;&lt;/font&gt;&lt;/div&gt;" style="text;html=1;align=center;verticalAlign=middle;whiteSpace=wrap;rounded=0;" parent="1" vertex="1">
          <mxGeometry x="819.3800000000001" y="680" width="100" height="30" as="geometry" />
        </mxCell>
        <mxCell id="MuQ0PQbIv6fsbAUj5o-P-50" value="&lt;div&gt;SkillIssueBro&lt;/div&gt;&lt;div&gt;Game of Life&lt;br&gt;&lt;/div&gt;&lt;div&gt;Card Set&lt;br&gt;&lt;/div&gt;" style="rounded=0;whiteSpace=wrap;html=1;" parent="1" vertex="1">
          <mxGeometry x="909.3800000000001" y="885.3399999999999" width="120" height="60" as="geometry" />
        </mxCell>
        <mxCell id="MuQ0PQbIv6fsbAUj5o-P-51" value="" style="endArrow=none;html=1;rounded=0;startArrow=classic;startFill=1;" parent="1" edge="1">
          <mxGeometry width="50" height="50" relative="1" as="geometry">
            <mxPoint x="789.3800000000001" y="865.3399999999999" as="sourcePoint" />
            <mxPoint x="959.3800000000001" y="865.3399999999999" as="targetPoint" />
          </mxGeometry>
        </mxCell>
        <mxCell id="MuQ0PQbIv6fsbAUj5o-P-52" value="" style="endArrow=classicThin;html=1;strokeWidth=1;rounded=0;endFill=1;" parent="1" edge="1">
          <mxGeometry width="50" height="50" relative="1" as="geometry">
            <mxPoint x="789.3800000000001" y="845.3399999999999" as="sourcePoint" />
            <mxPoint x="959.3800000000001" y="845.3399999999999" as="targetPoint" />
          </mxGeometry>
        </mxCell>
        <mxCell id="MuQ0PQbIv6fsbAUj5o-P-53" value="&lt;div style=&quot;font-size: 8px;&quot;&gt;&lt;font style=&quot;font-size: 8px;&quot;&gt;Click the card set button&lt;br&gt;&lt;/font&gt;&lt;/div&gt;" style="text;html=1;align=center;verticalAlign=middle;whiteSpace=wrap;rounded=0;" parent="1" vertex="1">
          <mxGeometry x="819.3800000000001" y="815.3399999999999" width="100" height="30" as="geometry" />
        </mxCell>
        <mxCell id="MuQ0PQbIv6fsbAUj5o-P-54" value="SkillIssueBro&lt;br&gt;&lt;div&gt;Game of Life&lt;/div&gt;&lt;div&gt;Card Set&lt;br&gt;&lt;/div&gt;" style="rounded=0;whiteSpace=wrap;html=1;" parent="1" vertex="1">
          <mxGeometry x="909.3800000000001" y="765.3399999999999" width="120" height="60" as="geometry" />
        </mxCell>
        <mxCell id="MuQ0PQbIv6fsbAUj5o-P-55" value="" style="endArrow=none;dashed=1;html=1;strokeWidth=1;rounded=0;shape=link;exitX=0.5;exitY=0;exitDx=0;exitDy=0;" parent="1" source="MuQ0PQbIv6fsbAUj5o-P-50" edge="1">
          <mxGeometry width="50" height="50" relative="1" as="geometry">
            <mxPoint x="969.3800000000001" y="865.3399999999999" as="sourcePoint" />
            <mxPoint x="968.3800000000001" y="825.3399999999999" as="targetPoint" />
          </mxGeometry>
        </mxCell>
        <mxCell id="MuQ0PQbIv6fsbAUj5o-P-56" value="&lt;div style=&quot;font-size: 8px;&quot;&gt;&lt;font style=&quot;font-size: 8px;&quot;&gt;Clicks the back&lt;/font&gt;&lt;/div&gt;&lt;div style=&quot;font-size: 8px;&quot;&gt;&lt;font style=&quot;font-size: 8px;&quot;&gt;button&lt;font style=&quot;font-size: 8px;&quot;&gt;&lt;br&gt;&lt;/font&gt;&lt;/font&gt;&lt;/div&gt;" style="text;html=1;align=center;verticalAlign=middle;whiteSpace=wrap;rounded=0;" parent="1" vertex="1">
          <mxGeometry x="819.3800000000001" y="870" width="100" height="30" as="geometry" />
        </mxCell>
      </root>
    </mxGraphModel>
  </diagram>
</mxfile>
